solid OpenSCAD_Model
  facet normal -0.607567 -0.794268 0
    outer loop
      vertex 49.6309 66.5265 0
      vertex 51.2179 65.3125 23.99
      vertex 49.6309 66.5265 23.99
    endloop
  endfacet
  facet normal -0.607567 -0.794268 -0
    outer loop
      vertex 51.2179 65.3125 23.99
      vertex 49.6309 66.5265 0
      vertex 51.2179 65.3125 0
    endloop
  endfacet
  facet normal 0.602776 -0.797911 0
    outer loop
      vertex -50.8239 65.6196 0
      vertex -49.2296 66.824 23.99
      vertex -50.8239 65.6196 23.99
    endloop
  endfacet
  facet normal 0.602776 -0.797911 0
    outer loop
      vertex -49.2296 66.824 23.99
      vertex -50.8239 65.6196 0
      vertex -49.2296 66.824 0
    endloop
  endfacet
  facet normal -0.588273 -0.808662 0
    outer loop
      vertex 48.0152 67.7019 0
      vertex 49.6309 66.5265 23.99
      vertex 48.0152 67.7019 23.99
    endloop
  endfacet
  facet normal -0.588273 -0.808662 -0
    outer loop
      vertex 49.6309 66.5265 23.99
      vertex 48.0152 67.7019 0
      vertex 49.6309 66.5265 0
    endloop
  endfacet
  facet normal 0.621809 -0.783169 0
    outer loop
      vertex -52.3887 64.3772 0
      vertex -50.8239 65.6196 23.99
      vertex -52.3887 64.3772 23.99
    endloop
  endfacet
  facet normal 0.621809 -0.783169 0
    outer loop
      vertex -50.8239 65.6196 23.99
      vertex -52.3887 64.3772 0
      vertex -50.8239 65.6196 0
    endloop
  endfacet
  facet normal 0.583394 -0.81219 0
    outer loop
      vertex -49.2296 66.824 0
      vertex -47.6068 67.9896 23.99
      vertex -49.2296 66.824 23.99
    endloop
  endfacet
  facet normal 0.583394 -0.81219 0
    outer loop
      vertex -47.6068 67.9896 23.99
      vertex -49.2296 66.824 0
      vertex -47.6068 67.9896 0
    endloop
  endfacet
  facet normal -0.663297 -0.748356 0
    outer loop
      vertex 54.3019 62.7718 0
      vertex 55 62.1531 23.99
      vertex 54.3019 62.7718 23.99
    endloop
  endfacet
  facet normal -0.663297 -0.748356 -0
    outer loop
      vertex 55 62.1531 23.99
      vertex 54.3019 62.7718 0
      vertex 55 62.1531 0
    endloop
  endfacet
  facet normal -0.626509 -0.779414 0
    outer loop
      vertex 51.2179 65.3125 0
      vertex 52.7752 64.0607 23.99
      vertex 51.2179 65.3125 23.99
    endloop
  endfacet
  facet normal -0.626509 -0.779414 -0
    outer loop
      vertex 52.7752 64.0607 23.99
      vertex 51.2179 65.3125 0
      vertex 52.7752 64.0607 0
    endloop
  endfacet
  facet normal -0.645089 -0.764107 0
    outer loop
      vertex 52.7752 64.0607 0
      vertex 54.3019 62.7718 23.99
      vertex 52.7752 64.0607 23.99
    endloop
  endfacet
  facet normal -0.645089 -0.764107 -0
    outer loop
      vertex 54.3019 62.7718 23.99
      vertex 52.7752 64.0607 0
      vertex 54.3019 62.7718 0
    endloop
  endfacet
  facet normal -0.568633 -0.822591 0
    outer loop
      vertex 47.1 68.3345 0
      vertex 48.0152 67.7019 23.99
      vertex 47.1 68.3345 23.99
    endloop
  endfacet
  facet normal -0.568633 -0.822591 -0
    outer loop
      vertex 48.0152 67.7019 23.99
      vertex 47.1 68.3345 0
      vertex 48.0152 67.7019 0
    endloop
  endfacet
  facet normal 0.56368 -0.825993 0
    outer loop
      vertex -47.6068 67.9896 0
      vertex -47.1 68.3355 23.99
      vertex -47.6068 67.9896 23.99
    endloop
  endfacet
  facet normal 0.56368 -0.825993 0
    outer loop
      vertex -47.1 68.3355 23.99
      vertex -47.6068 67.9896 0
      vertex -47.1 68.3355 0
    endloop
  endfacet
  facet normal 0.64048 -0.767975 0
    outer loop
      vertex -53.9232 63.0975 0
      vertex -52.3887 64.3772 23.99
      vertex -53.9232 63.0975 23.99
    endloop
  endfacet
  facet normal 0.64048 -0.767975 0
    outer loop
      vertex -52.3887 64.3772 23.99
      vertex -53.9232 63.0975 0
      vertex -52.3887 64.3772 0
    endloop
  endfacet
  facet normal 0.658778 -0.752337 0
    outer loop
      vertex -55 62.1546 0
      vertex -53.9232 63.0975 23.99
      vertex -55 62.1546 23.99
    endloop
  endfacet
  facet normal 0.658778 -0.752337 0
    outer loop
      vertex -53.9232 63.0975 23.99
      vertex -55 62.1546 0
      vertex -53.9232 63.0975 0
    endloop
  endfacet
  facet normal 0.522499 0.85264 -0
    outer loop
      vertex 47.3509 75.3585 0
      vertex 45.648 76.4019 23.99
      vertex 47.3509 75.3585 23.99
    endloop
  endfacet
  facet normal 0.522499 0.85264 0
    outer loop
      vertex 45.648 76.4019 23.99
      vertex 47.3509 75.3585 0
      vertex 45.648 76.4019 0
    endloop
  endfacet
  facet normal 0.298328 0.954463 -0
    outer loop
      vertex 27.5025 84.644 0
      vertex 25.5963 85.2398 6
      vertex 27.5025 84.644 6
    endloop
  endfacet
  facet normal 0.298328 0.954463 0
    outer loop
      vertex 25.5963 85.2398 6
      vertex 27.5025 84.644 0
      vertex 25.5963 85.2398 0
    endloop
  endfacet
  facet normal 0.0784624 0.996917 -0
    outer loop
      vertex 7.9779 88.6417 0
      vertex 6.99642 88.719 6
      vertex 7.9779 88.6417 6
    endloop
  endfacet
  facet normal 0.0784624 0.996917 0
    outer loop
      vertex 6.99642 88.719 6
      vertex 7.9779 88.6417 0
      vertex 6.99642 88.719 0
    endloop
  endfacet
  facet normal -0.100808 0.994906 0
    outer loop
      vertex -7.9779 88.6417 0
      vertex -9.96484 88.4404 6
      vertex -7.9779 88.6417 6
    endloop
  endfacet
  facet normal -0.100808 0.994906 0
    outer loop
      vertex -9.96484 88.4404 6
      vertex -7.9779 88.6417 0
      vertex -9.96484 88.4404 0
    endloop
  endfacet
  facet normal -0.298328 0.954463 0
    outer loop
      vertex -25.5963 85.2398 0
      vertex -27.5025 84.644 6
      vertex -25.5963 85.2398 6
    endloop
  endfacet
  facet normal -0.298328 0.954463 0
    outer loop
      vertex -27.5025 84.644 6
      vertex -25.5963 85.2398 0
      vertex -27.5025 84.644 0
    endloop
  endfacet
  facet normal 0.503236 0.864149 -0
    outer loop
      vertex 45.648 76.4019 0
      vertex 43.9222 77.407 23.99
      vertex 45.648 76.4019 23.99
    endloop
  endfacet
  facet normal 0.503236 0.864149 0
    outer loop
      vertex 43.9222 77.407 23.99
      vertex 45.648 76.4019 0
      vertex 43.9222 77.407 0
    endloop
  endfacet
  facet normal 0.382682 0.92388 -0
    outer loop
      vertex 34.9792 81.838 0
      vertex 33.1341 82.6022 6
      vertex 34.9792 81.838 6
    endloop
  endfacet
  facet normal 0.382682 0.92388 0
    outer loop
      vertex 33.1341 82.6022 6
      vertex 34.9792 81.838 0
      vertex 33.1341 82.6022 0
    endloop
  endfacet
  facet normal -0.011222 0.999937 0
    outer loop
      vertex 6.98691e-15 89 3.5
      vertex -1.86881 88.979 6
      vertex 6.98691e-15 89 6
    endloop
  endfacet
  facet normal -0.011222 0.999937 0
    outer loop
      vertex -1.86881 88.979 6
      vertex 6.98691e-15 89 3.5
      vertex -1.86881 88.979 3.5
    endloop
  endfacet
  facet normal 0.233445 0.97237 -0
    outer loop
      vertex 21.7463 86.3024 0
      vertex 19.8044 86.7686 6
      vertex 21.7463 86.3024 6
    endloop
  endfacet
  facet normal 0.233445 0.97237 0
    outer loop
      vertex 19.8044 86.7686 6
      vertex 21.7463 86.3024 0
      vertex 19.8044 86.7686 0
    endloop
  endfacet
  facet normal -0.423748 0.90578 0
    outer loop
      vertex -36.8067 81.0325 0
      vertex -38.6157 80.1862 6
      vertex -36.8067 81.0325 6
    endloop
  endfacet
  facet normal -0.423748 0.90578 0
    outer loop
      vertex -38.6157 80.1862 6
      vertex -36.8067 81.0325 0
      vertex -38.6157 80.1862 0
    endloop
  endfacet
  facet normal -0.443963 0.896045 0
    outer loop
      vertex -38.6157 80.1862 0
      vertex -40.4052 79.2996 6
      vertex -38.6157 80.1862 6
    endloop
  endfacet
  facet normal -0.443963 0.896045 0
    outer loop
      vertex -40.4052 79.2996 6
      vertex -38.6157 80.1862 0
      vertex -40.4052 79.2996 0
    endloop
  endfacet
  facet normal -0.382682 0.92388 0
    outer loop
      vertex -33.1341 82.6022 0
      vertex -34.9792 81.838 6
      vertex -33.1341 82.6022 6
    endloop
  endfacet
  facet normal -0.382682 0.92388 0
    outer loop
      vertex -34.9792 81.838 6
      vertex -33.1341 82.6022 0
      vertex -34.9792 81.838 0
    endloop
  endfacet
  facet normal -0.167505 0.985871 0
    outer loop
      vertex -13.9227 87.9043 0
      vertex -15.8916 87.5697 6
      vertex -13.9227 87.9043 6
    endloop
  endfacet
  facet normal -0.167505 0.985871 0
    outer loop
      vertex -15.8916 87.5697 6
      vertex -13.9227 87.9043 0
      vertex -15.8916 87.5697 0
    endloop
  endfacet
  facet normal 0.596825 0.802372 -0
    outer loop
      vertex 53.9153 70.8106 0
      vertex 52.3129 72.0025 23.99
      vertex 53.9153 70.8106 23.99
    endloop
  endfacet
  facet normal 0.596825 0.802372 0
    outer loop
      vertex 52.3129 72.0025 23.99
      vertex 53.9153 70.8106 0
      vertex 52.3129 72.0025 0
    endloop
  endfacet
  facet normal 0.463958 0.885857 0
    outer loop
      vertex 42.1743 78.373 23.99
      vertex 41.1 78.9357 6
      vertex 41.1 78.9357 23.99
    endloop
  endfacet
  facet normal 0.463958 0.885857 -0
    outer loop
      vertex 42.1743 78.373 0
      vertex 41.1 78.9357 6
      vertex 42.1743 78.373 23.99
    endloop
  endfacet
  facet normal 0.46396 0.885856 5.00092e-07
    outer loop
      vertex 40.4052 79.2996 0
      vertex 41.1 78.9357 6
      vertex 42.1743 78.373 0
    endloop
  endfacet
  facet normal 0.463964 0.885854 0
    outer loop
      vertex 41.1 78.9357 6
      vertex 40.4052 79.2996 0
      vertex 40.4052 79.2996 6
    endloop
  endfacet
  facet normal 0.423748 0.90578 -0
    outer loop
      vertex 38.6157 80.1862 0
      vertex 36.8067 81.0325 6
      vertex 38.6157 80.1862 6
    endloop
  endfacet
  facet normal 0.423748 0.90578 0
    outer loop
      vertex 36.8067 81.0325 6
      vertex 38.6157 80.1862 0
      vertex 36.8067 81.0325 0
    endloop
  endfacet
  facet normal 0.0112191 0.999937 -0
    outer loop
      vertex 1.83938 88.9794 3.5
      vertex 6.98691e-15 89 6
      vertex 1.83938 88.9794 6
    endloop
  endfacet
  facet normal 0.0112191 0.999937 0
    outer loop
      vertex 6.98691e-15 89 6
      vertex 1.83938 88.9794 3.5
      vertex 6.98691e-15 89 3.5
    endloop
  endfacet
  facet normal 0.167505 0.985871 -0
    outer loop
      vertex 15.8916 87.5697 0
      vertex 13.9227 87.9043 6
      vertex 15.8916 87.5697 6
    endloop
  endfacet
  facet normal 0.167505 0.985871 0
    outer loop
      vertex 13.9227 87.9043 6
      vertex 15.8916 87.5697 0
      vertex 13.9227 87.9043 0
    endloop
  endfacet
  facet normal 0.100808 0.994906 -0
    outer loop
      vertex 9.96484 88.4404 0
      vertex 7.9779 88.6417 6
      vertex 9.96484 88.4404 6
    endloop
  endfacet
  facet normal 0.100808 0.994906 0
    outer loop
      vertex 7.9779 88.6417 6
      vertex 9.96484 88.4404 0
      vertex 7.9779 88.6417 0
    endloop
  endfacet
  facet normal 0.145344 0.989381 -0
    outer loop
      vertex 13.9227 87.9043 0
      vertex 11.9468 88.1945 6
      vertex 13.9227 87.9043 6
    endloop
  endfacet
  facet normal 0.145344 0.989381 0
    outer loop
      vertex 11.9468 88.1945 6
      vertex 13.9227 87.9043 0
      vertex 11.9468 88.1945 0
    endloop
  endfacet
  facet normal 0.361858 0.932233 -0
    outer loop
      vertex 33.1341 82.6022 0
      vertex 31.2724 83.3249 6
      vertex 33.1341 82.6022 6
    endloop
  endfacet
  facet normal 0.361858 0.932233 0
    outer loop
      vertex 31.2724 83.3249 6
      vertex 33.1341 82.6022 0
      vertex 31.2724 83.3249 0
    endloop
  endfacet
  facet normal 0.319668 0.94753 -0
    outer loop
      vertex 29.3948 84.0056 0
      vertex 27.5025 84.644 6
      vertex 29.3948 84.0056 6
    endloop
  endfacet
  facet normal 0.319668 0.94753 0
    outer loop
      vertex 27.5025 84.644 6
      vertex 29.3948 84.0056 0
      vertex 27.5025 84.644 0
    endloop
  endfacet
  facet normal 0.340847 0.940119 -0
    outer loop
      vertex 31.2724 83.3249 0
      vertex 29.3948 84.0056 6
      vertex 31.2724 83.3249 6
    endloop
  endfacet
  facet normal 0.340847 0.940119 0
    outer loop
      vertex 29.3948 84.0056 6
      vertex 31.2724 83.3249 0
      vertex 29.3948 84.0056 0
    endloop
  endfacet
  facet normal 0.276836 0.960917 -0
    outer loop
      vertex 25.5963 85.2398 0
      vertex 23.6773 85.7927 6
      vertex 25.5963 85.2398 6
    endloop
  endfacet
  facet normal 0.276836 0.960917 0
    outer loop
      vertex 23.6773 85.7927 6
      vertex 25.5963 85.2398 0
      vertex 23.6773 85.7927 0
    endloop
  endfacet
  facet normal 0.255205 0.966887 -0
    outer loop
      vertex 23.6773 85.7927 0
      vertex 21.7463 86.3024 6
      vertex 23.6773 85.7927 6
    endloop
  endfacet
  facet normal 0.255205 0.966887 0
    outer loop
      vertex 21.7463 86.3024 6
      vertex 23.6773 85.7927 0
      vertex 21.7463 86.3024 0
    endloop
  endfacet
  facet normal 0.189585 0.981864 -0
    outer loop
      vertex 17.8525 87.1911 0
      vertex 15.8916 87.5697 6
      vertex 17.8525 87.1911 6
    endloop
  endfacet
  facet normal 0.189585 0.981864 0
    outer loop
      vertex 15.8916 87.5697 6
      vertex 17.8525 87.1911 0
      vertex 15.8916 87.5697 0
    endloop
  endfacet
  facet normal -0.463964 0.885854 0
    outer loop
      vertex -40.4052 79.2996 6
      vertex -40.4052 79.2996 0
      vertex -41.1 78.9357 6
    endloop
  endfacet
  facet normal -0.463958 0.885857 0
    outer loop
      vertex -41.1 78.9357 6
      vertex -42.1743 78.373 23.99
      vertex -41.1 78.9357 23.99
    endloop
  endfacet
  facet normal -0.463958 0.885857 0
    outer loop
      vertex -41.1 78.9357 6
      vertex -42.1743 78.373 0
      vertex -42.1743 78.373 23.99
    endloop
  endfacet
  facet normal -0.46396 0.885856 5.00092e-07
    outer loop
      vertex -42.1743 78.373 0
      vertex -41.1 78.9357 6
      vertex -40.4052 79.2996 0
    endloop
  endfacet
  facet normal -0.560226 0.82834 0
    outer loop
      vertex -49.0298 74.277 0
      vertex -50.6841 73.1582 23.99
      vertex -49.0298 74.277 23.99
    endloop
  endfacet
  facet normal -0.560226 0.82834 0
    outer loop
      vertex -50.6841 73.1582 23.99
      vertex -49.0298 74.277 0
      vertex -50.6841 73.1582 0
    endloop
  endfacet
  facet normal -0.48372 0.875223 0
    outer loop
      vertex -42.1743 78.373 0
      vertex -43.9222 77.407 23.99
      vertex -42.1743 78.373 23.99
    endloop
  endfacet
  facet normal -0.48372 0.875223 0
    outer loop
      vertex -43.9222 77.407 23.99
      vertex -42.1743 78.373 0
      vertex -43.9222 77.407 0
    endloop
  endfacet
  facet normal -0.541499 0.840701 0
    outer loop
      vertex -47.3509 75.3585 0
      vertex -49.0298 74.277 23.99
      vertex -47.3509 75.3585 23.99
    endloop
  endfacet
  facet normal -0.541499 0.840701 0
    outer loop
      vertex -49.0298 74.277 23.99
      vertex -47.3509 75.3585 0
      vertex -49.0298 74.277 0
    endloop
  endfacet
  facet normal -0.503236 0.864149 0
    outer loop
      vertex -43.9222 77.407 0
      vertex -45.648 76.4019 23.99
      vertex -43.9222 77.407 23.99
    endloop
  endfacet
  facet normal -0.503236 0.864149 0
    outer loop
      vertex -45.648 76.4019 23.99
      vertex -43.9222 77.407 0
      vertex -45.648 76.4019 0
    endloop
  endfacet
  facet normal -0.57867 0.815562 0
    outer loop
      vertex -50.6841 73.1582 0
      vertex -52.3129 72.0025 23.99
      vertex -50.6841 73.1582 23.99
    endloop
  endfacet
  facet normal -0.57867 0.815562 0
    outer loop
      vertex -52.3129 72.0025 23.99
      vertex -50.6841 73.1582 0
      vertex -52.3129 72.0025 0
    endloop
  endfacet
  facet normal -0.596825 0.802372 0
    outer loop
      vertex -52.3129 72.0025 0
      vertex -53.9153 70.8106 23.99
      vertex -52.3129 72.0025 23.99
    endloop
  endfacet
  facet normal -0.596825 0.802372 0
    outer loop
      vertex -53.9153 70.8106 23.99
      vertex -52.3129 72.0025 0
      vertex -53.9153 70.8106 0
    endloop
  endfacet
  facet normal -0.340847 0.940119 0
    outer loop
      vertex -29.3948 84.0056 0
      vertex -31.2724 83.3249 6
      vertex -29.3948 84.0056 6
    endloop
  endfacet
  facet normal -0.340847 0.940119 0
    outer loop
      vertex -31.2724 83.3249 6
      vertex -29.3948 84.0056 0
      vertex -31.2724 83.3249 0
    endloop
  endfacet
  facet normal -0.211567 0.977363 0
    outer loop
      vertex -17.8525 87.1911 0
      vertex -19.8044 86.7686 6
      vertex -17.8525 87.1911 6
    endloop
  endfacet
  facet normal -0.211567 0.977363 0
    outer loop
      vertex -19.8044 86.7686 6
      vertex -17.8525 87.1911 0
      vertex -19.8044 86.7686 0
    endloop
  endfacet
  facet normal -0.276836 0.960917 0
    outer loop
      vertex -23.6773 85.7927 0
      vertex -25.5963 85.2398 6
      vertex -23.6773 85.7927 6
    endloop
  endfacet
  facet normal -0.276836 0.960917 0
    outer loop
      vertex -25.5963 85.2398 6
      vertex -23.6773 85.7927 0
      vertex -25.5963 85.2398 0
    endloop
  endfacet
  facet normal -0.233445 0.97237 0
    outer loop
      vertex -19.8044 86.7686 0
      vertex -21.7463 86.3024 6
      vertex -19.8044 86.7686 6
    endloop
  endfacet
  facet normal -0.233445 0.97237 0
    outer loop
      vertex -21.7463 86.3024 6
      vertex -19.8044 86.7686 0
      vertex -21.7463 86.3024 0
    endloop
  endfacet
  facet normal -0.123106 0.992393 0
    outer loop
      vertex -9.96484 88.4404 0
      vertex -11.9468 88.1945 6
      vertex -9.96484 88.4404 6
    endloop
  endfacet
  facet normal -0.123106 0.992393 0
    outer loop
      vertex -11.9468 88.1945 6
      vertex -9.96484 88.4404 0
      vertex -11.9468 88.1945 0
    endloop
  endfacet
  facet normal -0.145344 0.989381 0
    outer loop
      vertex -11.9468 88.1945 0
      vertex -13.9227 87.9043 6
      vertex -11.9468 88.1945 6
    endloop
  endfacet
  facet normal -0.145344 0.989381 0
    outer loop
      vertex -13.9227 87.9043 6
      vertex -11.9468 88.1945 0
      vertex -13.9227 87.9043 0
    endloop
  endfacet
  facet normal -0.189585 0.981864 0
    outer loop
      vertex -15.8916 87.5697 0
      vertex -17.8525 87.1911 6
      vertex -15.8916 87.5697 6
    endloop
  endfacet
  facet normal -0.189585 0.981864 0
    outer loop
      vertex -17.8525 87.1911 6
      vertex -15.8916 87.5697 0
      vertex -17.8525 87.1911 0
    endloop
  endfacet
  facet normal 0 0 -1
    outer loop
      vertex -47.1 0 0
      vertex -20.05 7 0
      vertex -20.05 0 0
    endloop
  endfacet
  facet normal 0 -0 -1
    outer loop
      vertex -23.6773 85.7927 0
      vertex -20.05 7 0
      vertex -47.1 68.3355 0
    endloop
  endfacet
  facet normal 0 0 -1
    outer loop
      vertex -20.05 7 0
      vertex -23.6773 85.7927 0
      vertex -21.7463 86.3024 0
    endloop
  endfacet
  facet normal 0 0 -1
    outer loop
      vertex -23.6773 85.7927 0
      vertex -47.1 68.3355 0
      vertex -25.5963 85.2398 0
    endloop
  endfacet
  facet normal 0 0 -1
    outer loop
      vertex -25.5963 85.2398 0
      vertex -47.1 68.3355 0
      vertex -27.5025 84.644 0
    endloop
  endfacet
  facet normal 0 0 -1
    outer loop
      vertex -27.5025 84.644 0
      vertex -47.1 68.3355 0
      vertex -29.3948 84.0056 0
    endloop
  endfacet
  facet normal 0 0 -1
    outer loop
      vertex -29.3948 84.0056 0
      vertex -47.1 68.3355 0
      vertex -31.2724 83.3249 0
    endloop
  endfacet
  facet normal 0 0 -1
    outer loop
      vertex -31.2724 83.3249 0
      vertex -47.1 68.3355 0
      vertex -33.1341 82.6022 0
    endloop
  endfacet
  facet normal 0 0 -1
    outer loop
      vertex -33.1341 82.6022 0
      vertex -47.1 68.3355 0
      vertex -34.9792 81.838 0
    endloop
  endfacet
  facet normal 0 0 -1
    outer loop
      vertex -34.9792 81.838 0
      vertex -47.1 68.3355 0
      vertex -36.8067 81.0325 0
    endloop
  endfacet
  facet normal 0 0 -1
    outer loop
      vertex -36.8067 81.0325 0
      vertex -47.1 68.3355 0
      vertex -38.6157 80.1862 0
    endloop
  endfacet
  facet normal 0 0 -1
    outer loop
      vertex -38.6157 80.1862 0
      vertex -47.1 68.3355 0
      vertex -40.4052 79.2996 0
    endloop
  endfacet
  facet normal 0 0 -1
    outer loop
      vertex -40.4052 79.2996 0
      vertex -47.1 68.3355 0
      vertex -42.1743 78.373 0
    endloop
  endfacet
  facet normal 0 0 -1
    outer loop
      vertex -42.1743 78.373 0
      vertex -47.1 68.3355 0
      vertex -43.9222 77.407 0
    endloop
  endfacet
  facet normal -0 0 -1
    outer loop
      vertex -20.05 7 0
      vertex -47.1 0 0
      vertex -47.1 68.3355 0
    endloop
  endfacet
  facet normal 0 0 -1
    outer loop
      vertex -43.9222 77.407 0
      vertex -47.1 68.3355 0
      vertex -45.648 76.4019 0
    endloop
  endfacet
  facet normal 0 0 -1
    outer loop
      vertex -47.1 68.3355 0
      vertex -47.3509 75.3585 0
      vertex -45.648 76.4019 0
    endloop
  endfacet
  facet normal 0 0 -1
    outer loop
      vertex -50.6841 73.1582 0
      vertex -47.1 68.3355 0
      vertex -47.6068 67.9896 0
    endloop
  endfacet
  facet normal 0 0 -1
    outer loop
      vertex -47.1 68.3355 0
      vertex -49.0298 74.277 0
      vertex -47.3509 75.3585 0
    endloop
  endfacet
  facet normal 0 0 -1
    outer loop
      vertex -52.3129 72.0025 0
      vertex -47.6068 67.9896 0
      vertex -49.2296 66.824 0
    endloop
  endfacet
  facet normal 0 0 -1
    outer loop
      vertex -47.1 68.3355 0
      vertex -50.6841 73.1582 0
      vertex -49.0298 74.277 0
    endloop
  endfacet
  facet normal 0 0 -1
    outer loop
      vertex -53.9153 70.8106 0
      vertex -49.2296 66.824 0
      vertex -50.8239 65.6196 0
    endloop
  endfacet
  facet normal 0 0 -1
    outer loop
      vertex -47.6068 67.9896 0
      vertex -52.3129 72.0025 0
      vertex -50.6841 73.1582 0
    endloop
  endfacet
  facet normal 0 0 -1
    outer loop
      vertex -55 69.9653 0
      vertex -50.8239 65.6196 0
      vertex -52.3887 64.3772 0
    endloop
  endfacet
  facet normal 0 0 -1
    outer loop
      vertex -49.2296 66.824 0
      vertex -53.9153 70.8106 0
      vertex -52.3129 72.0025 0
    endloop
  endfacet
  facet normal 0 0 -1
    outer loop
      vertex -55 69.9653 0
      vertex -52.3887 64.3772 0
      vertex -53.9232 63.0975 0
    endloop
  endfacet
  facet normal 0 0 -1
    outer loop
      vertex -55 69.9653 0
      vertex -53.9232 63.0975 0
      vertex -55 62.1546 0
    endloop
  endfacet
  facet normal 0 0 -1
    outer loop
      vertex -50.8239 65.6196 0
      vertex -55 69.9653 0
      vertex -53.9153 70.8106 0
    endloop
  endfacet
  facet normal 0 0 -1
    outer loop
      vertex 20.05 7 0
      vertex 47.1 68.3345 0
      vertex 47.1 0 0
    endloop
  endfacet
  facet normal 0 -0 -1
    outer loop
      vertex 23.6773 85.7927 0
      vertex 47.1 68.3345 0
      vertex 20.05 7 0
    endloop
  endfacet
  facet normal 0 0 -1
    outer loop
      vertex 47.1 68.3345 0
      vertex 43.9222 77.407 0
      vertex 45.648 76.4019 0
    endloop
  endfacet
  facet normal 0 0 -1
    outer loop
      vertex 47.1 68.3345 0
      vertex 42.1743 78.373 0
      vertex 43.9222 77.407 0
    endloop
  endfacet
  facet normal 0 0 -1
    outer loop
      vertex 47.1 68.3345 0
      vertex 40.4052 79.2996 0
      vertex 42.1743 78.373 0
    endloop
  endfacet
  facet normal 0 0 -1
    outer loop
      vertex 47.1 68.3345 0
      vertex 38.6157 80.1862 0
      vertex 40.4052 79.2996 0
    endloop
  endfacet
  facet normal 0 0 -1
    outer loop
      vertex 47.1 68.3345 0
      vertex 36.8067 81.0325 0
      vertex 38.6157 80.1862 0
    endloop
  endfacet
  facet normal 0 0 -1
    outer loop
      vertex 47.1 68.3345 0
      vertex 34.9792 81.838 0
      vertex 36.8067 81.0325 0
    endloop
  endfacet
  facet normal 0 0 -1
    outer loop
      vertex 47.1 68.3345 0
      vertex 33.1341 82.6022 0
      vertex 34.9792 81.838 0
    endloop
  endfacet
  facet normal 0 0 -1
    outer loop
      vertex 47.1 68.3345 0
      vertex 31.2724 83.3249 0
      vertex 33.1341 82.6022 0
    endloop
  endfacet
  facet normal 0 0 -1
    outer loop
      vertex 47.1 68.3345 0
      vertex 29.3948 84.0056 0
      vertex 31.2724 83.3249 0
    endloop
  endfacet
  facet normal 0 0 -1
    outer loop
      vertex 47.1 68.3345 0
      vertex 27.5025 84.644 0
      vertex 29.3948 84.0056 0
    endloop
  endfacet
  facet normal 0 0 -1
    outer loop
      vertex 47.1 68.3345 0
      vertex 25.5963 85.2398 0
      vertex 27.5025 84.644 0
    endloop
  endfacet
  facet normal 0 0 -1
    outer loop
      vertex 47.1 68.3345 0
      vertex 23.6773 85.7927 0
      vertex 25.5963 85.2398 0
    endloop
  endfacet
  facet normal 0 0 -1
    outer loop
      vertex 20.05 7 0
      vertex 47.1 0 0
      vertex 20.05 0 0
    endloop
  endfacet
  facet normal -0 0 -1
    outer loop
      vertex 23.6773 85.7927 0
      vertex 20.05 7 0
      vertex 21.7463 86.3024 0
    endloop
  endfacet
  facet normal 0 0 -1
    outer loop
      vertex 20.05 7 0
      vertex 19.8044 86.7686 0
      vertex 21.7463 86.3024 0
    endloop
  endfacet
  facet normal 0 0 -1
    outer loop
      vertex 20.05 7 0
      vertex 17.8525 87.1911 0
      vertex 19.8044 86.7686 0
    endloop
  endfacet
  facet normal 0 0 -1
    outer loop
      vertex 20.05 7 0
      vertex 15.8916 87.5697 0
      vertex 17.8525 87.1911 0
    endloop
  endfacet
  facet normal 0 0 -1
    outer loop
      vertex 20.05 7 0
      vertex 13.9227 87.9043 0
      vertex 15.8916 87.5697 0
    endloop
  endfacet
  facet normal 0 0 -1
    outer loop
      vertex 20.05 7 0
      vertex 11.9468 88.1945 0
      vertex 13.9227 87.9043 0
    endloop
  endfacet
  facet normal 0 0 -1
    outer loop
      vertex 20.05 7 0
      vertex 9.96484 88.4404 0
      vertex 11.9468 88.1945 0
    endloop
  endfacet
  facet normal 0 0 -1
    outer loop
      vertex 20.05 7 0
      vertex 7.9779 88.6417 0
      vertex 9.96484 88.4404 0
    endloop
  endfacet
  facet normal 0 0 -1
    outer loop
      vertex 20.05 7 0
      vertex 6.99642 88.719 0
      vertex 7.9779 88.6417 0
    endloop
  endfacet
  facet normal 0 0 -1
    outer loop
      vertex 1.59099 94.591 0
      vertex 7.30501 96.834 0
      vertex 2.25 93 0
    endloop
  endfacet
  facet normal 0 0 -1
    outer loop
      vertex -6.99642 88.719 0
      vertex 6.99642 88.719 0
      vertex 20.05 7 0
    endloop
  endfacet
  facet normal -0 0 -1
    outer loop
      vertex 7.30501 96.834 0
      vertex 1.59099 94.591 0
      vertex 6.17521 98.4708 0
    endloop
  endfacet
  facet normal -0 0 -1
    outer loop
      vertex 6.17521 98.4708 0
      vertex 1.59099 94.591 0
      vertex 4.68653 99.7896 0
    endloop
  endfacet
  facet normal 0 0 -1
    outer loop
      vertex 6.99642 88.719 0
      vertex 1.59099 91.409 0
      vertex 2.25 93 0
    endloop
  endfacet
  facet normal 0 0 -1
    outer loop
      vertex 6.99642 88.719 0
      vertex 0 90.75 0
      vertex 1.59099 91.409 0
    endloop
  endfacet
  facet normal 0 0 -1
    outer loop
      vertex 6.99642 88.719 0
      vertex -6.99642 88.719 0
      vertex 0 90.75 0
    endloop
  endfacet
  facet normal -0 0 -1
    outer loop
      vertex 0 90.75 0
      vertex -6.99642 88.719 0
      vertex -1.59099 91.409 0
    endloop
  endfacet
  facet normal 0 0 -1
    outer loop
      vertex -1.59099 94.591 0
      vertex -4.68653 99.7896 0
      vertex -2.92549 100.714 0
    endloop
  endfacet
  facet normal 0 0 -1
    outer loop
      vertex -7.30501 89.166 0
      vertex -1.59099 91.409 0
      vertex -6.99642 88.719 0
    endloop
  endfacet
  facet normal -0 0 -1
    outer loop
      vertex -1.59099 91.409 0
      vertex -7.30501 89.166 0
      vertex -2.25 93 0
    endloop
  endfacet
  facet normal 0 0 -1
    outer loop
      vertex -1.59099 94.591 0
      vertex -6.17521 98.4708 0
      vertex -4.68653 99.7896 0
    endloop
  endfacet
  facet normal 0 0 -1
    outer loop
      vertex -20.05 7 0
      vertex -6.99642 88.719 0
      vertex 20.05 7 0
    endloop
  endfacet
  facet normal 0 0 -1
    outer loop
      vertex -6.99642 88.719 0
      vertex -20.05 7 0
      vertex -7.9779 88.6417 0
    endloop
  endfacet
  facet normal 0 0 -1
    outer loop
      vertex -7.9779 88.6417 0
      vertex -20.05 7 0
      vertex -9.96484 88.4404 0
    endloop
  endfacet
  facet normal 0 0 -1
    outer loop
      vertex -9.96484 88.4404 0
      vertex -20.05 7 0
      vertex -11.9468 88.1945 0
    endloop
  endfacet
  facet normal 0 0 -1
    outer loop
      vertex -11.9468 88.1945 0
      vertex -20.05 7 0
      vertex -13.9227 87.9043 0
    endloop
  endfacet
  facet normal 0 0 -1
    outer loop
      vertex -13.9227 87.9043 0
      vertex -20.05 7 0
      vertex -15.8916 87.5697 0
    endloop
  endfacet
  facet normal 0 0 -1
    outer loop
      vertex -15.8916 87.5697 0
      vertex -20.05 7 0
      vertex -17.8525 87.1911 0
    endloop
  endfacet
  facet normal 0 0 -1
    outer loop
      vertex -17.8525 87.1911 0
      vertex -20.05 7 0
      vertex -19.8044 86.7686 0
    endloop
  endfacet
  facet normal 0 0 -1
    outer loop
      vertex -19.8044 86.7686 0
      vertex -20.05 7 0
      vertex -21.7463 86.3024 0
    endloop
  endfacet
  facet normal 0 0 -1
    outer loop
      vertex 54.3019 62.7718 0
      vertex 55 69.9653 0
      vertex 55 62.1531 0
    endloop
  endfacet
  facet normal 0 0 -1
    outer loop
      vertex 52.7752 64.0607 0
      vertex 55 69.9653 0
      vertex 54.3019 62.7718 0
    endloop
  endfacet
  facet normal 0 0 -1
    outer loop
      vertex 51.2179 65.3125 0
      vertex 55 69.9653 0
      vertex 52.7752 64.0607 0
    endloop
  endfacet
  facet normal -0 0 -1
    outer loop
      vertex 55 69.9653 0
      vertex 51.2179 65.3125 0
      vertex 53.9153 70.8106 0
    endloop
  endfacet
  facet normal 0 0 -1
    outer loop
      vertex 49.6309 66.5265 0
      vertex 53.9153 70.8106 0
      vertex 51.2179 65.3125 0
    endloop
  endfacet
  facet normal -0 0 -1
    outer loop
      vertex 53.9153 70.8106 0
      vertex 49.6309 66.5265 0
      vertex 52.3129 72.0025 0
    endloop
  endfacet
  facet normal 0 0 -1
    outer loop
      vertex 48.0152 67.7019 0
      vertex 52.3129 72.0025 0
      vertex 49.6309 66.5265 0
    endloop
  endfacet
  facet normal -0 0 -1
    outer loop
      vertex 52.3129 72.0025 0
      vertex 48.0152 67.7019 0
      vertex 50.6841 73.1582 0
    endloop
  endfacet
  facet normal 0 0 -1
    outer loop
      vertex 47.1 68.3345 0
      vertex 50.6841 73.1582 0
      vertex 48.0152 67.7019 0
    endloop
  endfacet
  facet normal -0 0 -1
    outer loop
      vertex 50.6841 73.1582 0
      vertex 47.1 68.3345 0
      vertex 49.0298 74.277 0
    endloop
  endfacet
  facet normal -0 0 -1
    outer loop
      vertex 49.0298 74.277 0
      vertex 47.1 68.3345 0
      vertex 47.3509 75.3585 0
    endloop
  endfacet
  facet normal -0 0 -1
    outer loop
      vertex 47.3509 75.3585 0
      vertex 47.1 68.3345 0
      vertex 45.648 76.4019 0
    endloop
  endfacet
  facet normal 0 0 -1
    outer loop
      vertex 7.30501 89.166 0
      vertex 2.25 93 0
      vertex 8.01027 91.0257 0
    endloop
  endfacet
  facet normal 0 0 -1
    outer loop
      vertex 2.25 93 0
      vertex 7.30501 89.166 0
      vertex 6.99642 88.719 0
    endloop
  endfacet
  facet normal 0 0 -1
    outer loop
      vertex 8.01027 91.0257 0
      vertex 2.25 93 0
      vertex 8.25 93 0
    endloop
  endfacet
  facet normal 0 0 -1
    outer loop
      vertex 8.25 93 0
      vertex 2.25 93 0
      vertex 8.01027 94.9743 0
    endloop
  endfacet
  facet normal -0 0 -1
    outer loop
      vertex 8.01027 94.9743 0
      vertex 2.25 93 0
      vertex 7.30501 96.834 0
    endloop
  endfacet
  facet normal -0 0 -1
    outer loop
      vertex 4.68653 99.7896 0
      vertex 1.59099 94.591 0
      vertex 2.92549 100.714 0
    endloop
  endfacet
  facet normal 0 0 -1
    outer loop
      vertex 0 95.25 0
      vertex 2.92549 100.714 0
      vertex 1.59099 94.591 0
    endloop
  endfacet
  facet normal -0 0 -1
    outer loop
      vertex 2.92549 100.714 0
      vertex 0 95.25 0
      vertex 0.994427 101.19 0
    endloop
  endfacet
  facet normal 0 0 -1
    outer loop
      vertex 0 95.25 0
      vertex -0.994427 101.19 0
      vertex 0.994427 101.19 0
    endloop
  endfacet
  facet normal 0 0 -1
    outer loop
      vertex -2.92549 100.714 0
      vertex 0 95.25 0
      vertex -1.59099 94.591 0
    endloop
  endfacet
  facet normal 0 0 -1
    outer loop
      vertex -7.30501 96.834 0
      vertex -1.59099 94.591 0
      vertex -2.25 93 0
    endloop
  endfacet
  facet normal 0 0 -1
    outer loop
      vertex 0 95.25 0
      vertex -2.92549 100.714 0
      vertex -0.994427 101.19 0
    endloop
  endfacet
  facet normal 0 0 -1
    outer loop
      vertex -2.25 93 0
      vertex -7.30501 89.166 0
      vertex -8.01027 91.0257 0
    endloop
  endfacet
  facet normal 0 0 -1
    outer loop
      vertex -1.59099 94.591 0
      vertex -7.30501 96.834 0
      vertex -6.17521 98.4708 0
    endloop
  endfacet
  facet normal -0 0 -1
    outer loop
      vertex -2.25 93 0
      vertex -8.01027 91.0257 0
      vertex -8.25 93 0
    endloop
  endfacet
  facet normal 0 0 -1
    outer loop
      vertex -2.25 93 0
      vertex -8.01027 94.9743 0
      vertex -7.30501 96.834 0
    endloop
  endfacet
  facet normal 0 0 -1
    outer loop
      vertex -2.25 93 0
      vertex -8.25 93 0
      vertex -8.01027 94.9743 0
    endloop
  endfacet
  facet normal 0.614679 0.788777 -0
    outer loop
      vertex 55 69.9653 0
      vertex 53.9153 70.8106 23.99
      vertex 55 69.9653 23.99
    endloop
  endfacet
  facet normal 0.614679 0.788777 0
    outer loop
      vertex 53.9153 70.8106 23.99
      vertex 55 69.9653 0
      vertex 53.9153 70.8106 0
    endloop
  endfacet
  facet normal 0.560226 0.82834 -0
    outer loop
      vertex 50.6841 73.1582 0
      vertex 49.0298 74.277 23.99
      vertex 50.6841 73.1582 23.99
    endloop
  endfacet
  facet normal 0.560226 0.82834 0
    outer loop
      vertex 49.0298 74.277 23.99
      vertex 50.6841 73.1582 0
      vertex 49.0298 74.277 0
    endloop
  endfacet
  facet normal 0.57867 0.815562 -0
    outer loop
      vertex 52.3129 72.0025 0
      vertex 50.6841 73.1582 23.99
      vertex 52.3129 72.0025 23.99
    endloop
  endfacet
  facet normal 0.57867 0.815562 0
    outer loop
      vertex 50.6841 73.1582 23.99
      vertex 52.3129 72.0025 0
      vertex 50.6841 73.1582 0
    endloop
  endfacet
  facet normal 0.541499 0.840701 -0
    outer loop
      vertex 49.0298 74.277 0
      vertex 47.3509 75.3585 23.99
      vertex 49.0298 74.277 23.99
    endloop
  endfacet
  facet normal 0.541499 0.840701 0
    outer loop
      vertex 47.3509 75.3585 23.99
      vertex 49.0298 74.277 0
      vertex 47.3509 75.3585 0
    endloop
  endfacet
  facet normal 0.48372 0.875223 -0
    outer loop
      vertex 43.9222 77.407 0
      vertex 42.1743 78.373 23.99
      vertex 43.9222 77.407 23.99
    endloop
  endfacet
  facet normal 0.48372 0.875223 0
    outer loop
      vertex 42.1743 78.373 23.99
      vertex 43.9222 77.407 0
      vertex 42.1743 78.373 0
    endloop
  endfacet
  facet normal 0.403319 0.915059 -0
    outer loop
      vertex 36.8067 81.0325 0
      vertex 34.9792 81.838 6
      vertex 36.8067 81.0325 6
    endloop
  endfacet
  facet normal 0.403319 0.915059 0
    outer loop
      vertex 34.9792 81.838 6
      vertex 36.8067 81.0325 0
      vertex 34.9792 81.838 0
    endloop
  endfacet
  facet normal 0.443963 0.896045 -0
    outer loop
      vertex 40.4052 79.2996 0
      vertex 38.6157 80.1862 6
      vertex 40.4052 79.2996 6
    endloop
  endfacet
  facet normal 0.443963 0.896045 0
    outer loop
      vertex 38.6157 80.1862 6
      vertex 40.4052 79.2996 0
      vertex 38.6157 80.1862 0
    endloop
  endfacet
  facet normal 0.123106 0.992393 -0
    outer loop
      vertex 11.9468 88.1945 0
      vertex 9.96484 88.4404 6
      vertex 11.9468 88.1945 6
    endloop
  endfacet
  facet normal 0.123106 0.992393 0
    outer loop
      vertex 9.96484 88.4404 6
      vertex 11.9468 88.1945 0
      vertex 9.96484 88.4404 0
    endloop
  endfacet
  facet normal 0.211567 0.977363 -0
    outer loop
      vertex 19.8044 86.7686 0
      vertex 17.8525 87.1911 6
      vertex 19.8044 86.7686 6
    endloop
  endfacet
  facet normal 0.211567 0.977363 0
    outer loop
      vertex 17.8525 87.1911 6
      vertex 19.8044 86.7686 0
      vertex 17.8525 87.1911 0
    endloop
  endfacet
  facet normal -0.403319 0.915059 0
    outer loop
      vertex -34.9792 81.838 0
      vertex -36.8067 81.0325 6
      vertex -34.9792 81.838 6
    endloop
  endfacet
  facet normal -0.403319 0.915059 0
    outer loop
      vertex -36.8067 81.0325 6
      vertex -34.9792 81.838 0
      vertex -36.8067 81.0325 0
    endloop
  endfacet
  facet normal -0.522499 0.85264 0
    outer loop
      vertex -45.648 76.4019 0
      vertex -47.3509 75.3585 23.99
      vertex -45.648 76.4019 23.99
    endloop
  endfacet
  facet normal -0.522499 0.85264 0
    outer loop
      vertex -47.3509 75.3585 23.99
      vertex -45.648 76.4019 0
      vertex -47.3509 75.3585 0
    endloop
  endfacet
  facet normal -0.614679 0.788777 0
    outer loop
      vertex -53.9153 70.8106 0
      vertex -55 69.9653 23.99
      vertex -53.9153 70.8106 23.99
    endloop
  endfacet
  facet normal -0.614679 0.788777 0
    outer loop
      vertex -55 69.9653 23.99
      vertex -53.9153 70.8106 0
      vertex -55 69.9653 0
    endloop
  endfacet
  facet normal -0.361858 0.932233 0
    outer loop
      vertex -31.2724 83.3249 0
      vertex -33.1341 82.6022 6
      vertex -31.2724 83.3249 6
    endloop
  endfacet
  facet normal -0.361858 0.932233 0
    outer loop
      vertex -33.1341 82.6022 6
      vertex -31.2724 83.3249 0
      vertex -33.1341 82.6022 0
    endloop
  endfacet
  facet normal -0.319668 0.94753 0
    outer loop
      vertex -27.5025 84.644 0
      vertex -29.3948 84.0056 6
      vertex -27.5025 84.644 6
    endloop
  endfacet
  facet normal -0.319668 0.94753 0
    outer loop
      vertex -29.3948 84.0056 6
      vertex -27.5025 84.644 0
      vertex -29.3948 84.0056 0
    endloop
  endfacet
  facet normal -0.255205 0.966887 0
    outer loop
      vertex -21.7463 86.3024 0
      vertex -23.6773 85.7927 6
      vertex -21.7463 86.3024 6
    endloop
  endfacet
  facet normal -0.255205 0.966887 0
    outer loop
      vertex -23.6773 85.7927 6
      vertex -21.7463 86.3024 0
      vertex -23.6773 85.7927 0
    endloop
  endfacet
  facet normal -0.0784624 0.996917 0
    outer loop
      vertex -6.99642 88.719 0
      vertex -7.9779 88.6417 6
      vertex -6.99642 88.719 6
    endloop
  endfacet
  facet normal -0.0784624 0.996917 0
    outer loop
      vertex -7.9779 88.6417 6
      vertex -6.99642 88.719 0
      vertex -7.9779 88.6417 0
    endloop
  endfacet
  facet normal -1 0 0
    outer loop
      vertex -47.1 68.3355 0
      vertex -47.1 58 23.99
      vertex -47.1 68.3355 23.99
    endloop
  endfacet
  facet normal -1 0 0
    outer loop
      vertex -47.1 0 0
      vertex -47.1 58 23.99
      vertex -47.1 68.3355 0
    endloop
  endfacet
  facet normal -1 0 0
    outer loop
      vertex -47.1 0 30
      vertex -47.1 58 23.99
      vertex -47.1 0 0
    endloop
  endfacet
  facet normal -1 0 0
    outer loop
      vertex -47.1 58 23.99
      vertex -47.1 0 30
      vertex -47.1 58 30
    endloop
  endfacet
  facet normal 0 0 1
    outer loop
      vertex -44.1 58 30
      vertex -47.1 58 30
      vertex -44.1 3 30
    endloop
  endfacet
  facet normal -0 0 1
    outer loop
      vertex -44.1 3 30
      vertex -20.05 0 30
      vertex -20.05 3 30
    endloop
  endfacet
  facet normal 0 0 1
    outer loop
      vertex -44.1 3 30
      vertex -47.1 0 30
      vertex -20.05 0 30
    endloop
  endfacet
  facet normal 0 0 1
    outer loop
      vertex -47.1 0 30
      vertex -44.1 3 30
      vertex -47.1 58 30
    endloop
  endfacet
  facet normal 0 0 1
    outer loop
      vertex 44.1 3 30
      vertex 47.1 58 30
      vertex 44.1 58 30
    endloop
  endfacet
  facet normal 0 0 1
    outer loop
      vertex 47.1 58 30
      vertex 44.1 3 30
      vertex 47.1 0 30
    endloop
  endfacet
  facet normal 0 0 1
    outer loop
      vertex 20.05 0 30
      vertex 44.1 3 30
      vertex 20.05 3 30
    endloop
  endfacet
  facet normal 0 0 1
    outer loop
      vertex 44.1 3 30
      vertex 20.05 0 30
      vertex 47.1 0 30
    endloop
  endfacet
  facet normal 1 0 0
    outer loop
      vertex 47.1 58 30
      vertex 47.1 0 30
      vertex 47.1 58 23.99
    endloop
  endfacet
  facet normal 1 -0 0
    outer loop
      vertex 47.1 58 23.99
      vertex 47.1 68.3345 0
      vertex 47.1 68.3345 23.99
    endloop
  endfacet
  facet normal 1 0 0
    outer loop
      vertex 47.1 0 0
      vertex 47.1 58 23.99
      vertex 47.1 0 30
    endloop
  endfacet
  facet normal 1 0 0
    outer loop
      vertex 47.1 58 23.99
      vertex 47.1 0 0
      vertex 47.1 68.3345 0
    endloop
  endfacet
  facet normal 0 -1 0
    outer loop
      vertex -47.1 0 0
      vertex -20.05 0 30
      vertex -47.1 0 30
    endloop
  endfacet
  facet normal 0 -1 -0
    outer loop
      vertex -20.05 0 30
      vertex -47.1 0 0
      vertex -20.05 0 0
    endloop
  endfacet
  facet normal 0 -1 0
    outer loop
      vertex 20.05 0 0
      vertex 47.1 0 30
      vertex 20.05 0 30
    endloop
  endfacet
  facet normal 0 -1 -0
    outer loop
      vertex 47.1 0 30
      vertex 20.05 0 0
      vertex 47.1 0 0
    endloop
  endfacet
  facet normal 1 0 0
    outer loop
      vertex -20.05 3 30
      vertex -20.05 0 30
      vertex -20.05 3 23.99
    endloop
  endfacet
  facet normal 1 0 0
    outer loop
      vertex -20.05 6 23.99
      vertex -20.05 3 23.99
      vertex -20.05 6 6
    endloop
  endfacet
  facet normal 1 -0 0
    outer loop
      vertex -20.05 6 6
      vertex -20.05 7 0
      vertex -20.05 7 6
    endloop
  endfacet
  facet normal 1 0 0
    outer loop
      vertex -20.05 0 0
      vertex -20.05 6 6
      vertex -20.05 3 23.99
    endloop
  endfacet
  facet normal 1 0 0
    outer loop
      vertex -20.05 0 0
      vertex -20.05 3 23.99
      vertex -20.05 0 30
    endloop
  endfacet
  facet normal 1 0 0
    outer loop
      vertex -20.05 6 6
      vertex -20.05 0 0
      vertex -20.05 7 0
    endloop
  endfacet
  facet normal -1 0 0
    outer loop
      vertex 20.05 7 0
      vertex 20.05 6 6
      vertex 20.05 7 6
    endloop
  endfacet
  facet normal -1 0 0
    outer loop
      vertex 20.05 6 6
      vertex 20.05 3 23.99
      vertex 20.05 6 23.99
    endloop
  endfacet
  facet normal -1 0 0
    outer loop
      vertex 20.05 0 0
      vertex 20.05 6 6
      vertex 20.05 7 0
    endloop
  endfacet
  facet normal -1 -0 0
    outer loop
      vertex 20.05 6 6
      vertex 20.05 0 0
      vertex 20.05 3 23.99
    endloop
  endfacet
  facet normal -1 0 0
    outer loop
      vertex 20.05 0 30
      vertex 20.05 3 23.99
      vertex 20.05 0 0
    endloop
  endfacet
  facet normal -1 0 0
    outer loop
      vertex 20.05 3 23.99
      vertex 20.05 0 30
      vertex 20.05 3 30
    endloop
  endfacet
  facet normal 0 -1 0
    outer loop
      vertex -20.05 7 0
      vertex 20.05 7 6
      vertex -20.05 7 6
    endloop
  endfacet
  facet normal 0 -1 -0
    outer loop
      vertex 20.05 7 6
      vertex -20.05 7 0
      vertex 20.05 7 0
    endloop
  endfacet
  facet normal 1 -0 0
    outer loop
      vertex -41.1 6 23.99
      vertex -41.1 78.9357 6
      vertex -41.1 78.9357 23.99
    endloop
  endfacet
  facet normal 1 0 0
    outer loop
      vertex -41.1 78.9357 6
      vertex -41.1 6 23.99
      vertex -41.1 6 6
    endloop
  endfacet
  facet normal -1 0 0
    outer loop
      vertex 41.1 6 6
      vertex 41.1 78.9357 23.99
      vertex 41.1 78.9357 6
    endloop
  endfacet
  facet normal -1 -0 0
    outer loop
      vertex 41.1 78.9357 23.99
      vertex 41.1 6 6
      vertex 41.1 6 23.99
    endloop
  endfacet
  facet normal 0 0 1
    outer loop
      vertex 4.5 93 6
      vertex 8.25 93 6
      vertex 8.01027 94.9743 6
    endloop
  endfacet
  facet normal 0 0 1
    outer loop
      vertex 4.11095 94.8303 6
      vertex 8.01027 94.9743 6
      vertex 7.30501 96.834 6
    endloop
  endfacet
  facet normal 0 0 1
    outer loop
      vertex 8.25 93 6
      vertex 4.5 93 6
      vertex 8.01027 91.0257 6
    endloop
  endfacet
  facet normal -0 0 1
    outer loop
      vertex 4.11095 91.1697 6
      vertex 8.01027 91.0257 6
      vertex 4.5 93 6
    endloop
  endfacet
  facet normal 0 0 1
    outer loop
      vertex 4.11095 94.8303 6
      vertex 7.30501 96.834 6
      vertex 6.17521 98.4708 6
    endloop
  endfacet
  facet normal 0 0 1
    outer loop
      vertex 8.01027 91.0257 6
      vertex 4.11095 91.1697 6
      vertex 7.30501 89.166 6
    endloop
  endfacet
  facet normal 0 0 1
    outer loop
      vertex 3.01109 96.3442 6
      vertex 6.17521 98.4708 6
      vertex 4.68653 99.7896 6
    endloop
  endfacet
  facet normal 0 0 1
    outer loop
      vertex 7.30501 89.166 6
      vertex 4.11095 91.1697 6
      vertex 6.99642 88.719 6
    endloop
  endfacet
  facet normal -0 0 1
    outer loop
      vertex 3.01109 89.6558 6
      vertex 6.99642 88.719 6
      vertex 4.11095 91.1697 6
    endloop
  endfacet
  facet normal 0 0 1
    outer loop
      vertex 8.01027 94.9743 6
      vertex 4.11095 94.8303 6
      vertex 4.5 93 6
    endloop
  endfacet
  facet normal 0 0 1
    outer loop
      vertex 6.17521 98.4708 6
      vertex 3.01109 96.3442 6
      vertex 4.11095 94.8303 6
    endloop
  endfacet
  facet normal 0 0 1
    outer loop
      vertex 1.39058 97.2798 6
      vertex 4.68653 99.7896 6
      vertex 2.92549 100.714 6
    endloop
  endfacet
  facet normal 0 0 1
    outer loop
      vertex 4.68653 99.7896 6
      vertex 1.39058 97.2798 6
      vertex 3.01109 96.3442 6
    endloop
  endfacet
  facet normal 0 0 1
    outer loop
      vertex 0.994427 101.19 6
      vertex 1.39058 97.2798 6
      vertex 2.92549 100.714 6
    endloop
  endfacet
  facet normal 0 0 1
    outer loop
      vertex 0.994427 101.19 6
      vertex -0.470378 97.4753 6
      vertex 1.39058 97.2798 6
    endloop
  endfacet
  facet normal -0 0 1
    outer loop
      vertex -0.994427 101.19 6
      vertex -0.470378 97.4753 6
      vertex 0.994427 101.19 6
    endloop
  endfacet
  facet normal -0 0 1
    outer loop
      vertex -2.92549 100.714 6
      vertex -0.470378 97.4753 6
      vertex -0.994427 101.19 6
    endloop
  endfacet
  facet normal 0 0 1
    outer loop
      vertex -0.470378 97.4753 6
      vertex -2.92549 100.714 6
      vertex -2.25 96.8971 6
    endloop
  endfacet
  facet normal -0 0 1
    outer loop
      vertex -4.68653 99.7896 6
      vertex -2.25 96.8971 6
      vertex -2.92549 100.714 6
    endloop
  endfacet
  facet normal -0 0 1
    outer loop
      vertex -6.17521 98.4708 6
      vertex -2.25 96.8971 6
      vertex -4.68653 99.7896 6
    endloop
  endfacet
  facet normal -0 0 1
    outer loop
      vertex -7.30501 96.834 6
      vertex -3.64058 95.645 6
      vertex -6.17521 98.4708 6
    endloop
  endfacet
  facet normal 0 0 1
    outer loop
      vertex -2.25 96.8971 6
      vertex -6.17521 98.4708 6
      vertex -3.64058 95.645 6
    endloop
  endfacet
  facet normal 0 0 1
    outer loop
      vertex 6.99642 88.719 6
      vertex 3.01109 89.6558 6
      vertex 6.17521 87.5292 6
    endloop
  endfacet
  facet normal 0 0 1
    outer loop
      vertex 6.17521 87.5292 6
      vertex 3.01109 89.6558 6
      vertex 4.68653 86.2104 6
    endloop
  endfacet
  facet normal -0 0 1
    outer loop
      vertex 1.83938 88.9794 6
      vertex 4.68653 86.2104 6
      vertex 3.01109 89.6558 6
    endloop
  endfacet
  facet normal 0 0 1
    outer loop
      vertex 4.68653 86.2104 6
      vertex 1.83938 88.9794 6
      vertex 2.92549 85.2861 6
    endloop
  endfacet
  facet normal -0 0 1
    outer loop
      vertex 1.39058 88.7202 6
      vertex 2.92549 85.2861 6
      vertex 1.83938 88.9794 6
    endloop
  endfacet
  facet normal 0 0 1
    outer loop
      vertex 1.39058 88.7202 6
      vertex 0.994427 84.8102 6
      vertex 2.92549 85.2861 6
    endloop
  endfacet
  facet normal -0 0 1
    outer loop
      vertex -0.470378 88.5247 6
      vertex 0.994427 84.8102 6
      vertex 1.39058 88.7202 6
    endloop
  endfacet
  facet normal 0 0 1
    outer loop
      vertex -0.470378 88.5247 6
      vertex -0.994427 84.8102 6
      vertex 0.994427 84.8102 6
    endloop
  endfacet
  facet normal 0 0 1
    outer loop
      vertex -2.92549 85.2861 6
      vertex -0.470378 88.5247 6
      vertex -1.86881 88.979 6
    endloop
  endfacet
  facet normal 0 0 1
    outer loop
      vertex -2.92549 85.2861 6
      vertex -1.86881 88.979 6
      vertex -2.25 89.1029 6
    endloop
  endfacet
  facet normal 0 0 1
    outer loop
      vertex -0.470378 88.5247 6
      vertex -2.92549 85.2861 6
      vertex -0.994427 84.8102 6
    endloop
  endfacet
  facet normal 0 0 1
    outer loop
      vertex -6.17521 87.5292 6
      vertex -2.25 89.1029 6
      vertex -3.64058 90.355 6
    endloop
  endfacet
  facet normal 0 0 1
    outer loop
      vertex -7.30501 89.166 6
      vertex -3.64058 90.355 6
      vertex -4.40166 92.0644 6
    endloop
  endfacet
  facet normal 0 0 1
    outer loop
      vertex -2.25 89.1029 6
      vertex -4.68653 86.2104 6
      vertex -2.92549 85.2861 6
    endloop
  endfacet
  facet normal 0 0 1
    outer loop
      vertex -3.64058 95.645 6
      vertex -7.30501 96.834 6
      vertex -4.40166 93.9356 6
    endloop
  endfacet
  facet normal -0 0 1
    outer loop
      vertex -8.01027 94.9743 6
      vertex -4.40166 93.9356 6
      vertex -7.30501 96.834 6
    endloop
  endfacet
  facet normal 0 0 1
    outer loop
      vertex -3.64058 90.355 6
      vertex -6.99642 88.719 6
      vertex -6.17521 87.5292 6
    endloop
  endfacet
  facet normal 0 0 1
    outer loop
      vertex -2.25 89.1029 6
      vertex -6.17521 87.5292 6
      vertex -4.68653 86.2104 6
    endloop
  endfacet
  facet normal 0 0 1
    outer loop
      vertex -8.25 93 6
      vertex -4.40166 93.9356 6
      vertex -8.01027 94.9743 6
    endloop
  endfacet
  facet normal 0 0 1
    outer loop
      vertex -4.40166 93.9356 6
      vertex -8.25 93 6
      vertex -4.40166 92.0644 6
    endloop
  endfacet
  facet normal 0 -0 1
    outer loop
      vertex -8.01027 91.0257 6
      vertex -4.40166 92.0644 6
      vertex -8.25 93 6
    endloop
  endfacet
  facet normal 0 0 1
    outer loop
      vertex -3.64058 90.355 6
      vertex -7.30501 89.166 6
      vertex -6.99642 88.719 6
    endloop
  endfacet
  facet normal 0 -0 1
    outer loop
      vertex -7.30501 89.166 6
      vertex -4.40166 92.0644 6
      vertex -8.01027 91.0257 6
    endloop
  endfacet
  facet normal 0 0 1
    outer loop
      vertex 2.92549 85.2861 6
      vertex 21.7463 86.3024 6
      vertex 19.8044 86.7686 6
    endloop
  endfacet
  facet normal 0 0 1
    outer loop
      vertex 2.92549 85.2861 6
      vertex 19.8044 86.7686 6
      vertex 17.8525 87.1911 6
    endloop
  endfacet
  facet normal 0 0 1
    outer loop
      vertex 2.92549 85.2861 6
      vertex 17.8525 87.1911 6
      vertex 15.8916 87.5697 6
    endloop
  endfacet
  facet normal 0 0 1
    outer loop
      vertex 4.68653 86.2104 6
      vertex 15.8916 87.5697 6
      vertex 13.9227 87.9043 6
    endloop
  endfacet
  facet normal 0 0 1
    outer loop
      vertex 4.68653 86.2104 6
      vertex 13.9227 87.9043 6
      vertex 11.9468 88.1945 6
    endloop
  endfacet
  facet normal 0 0 1
    outer loop
      vertex 4.68653 86.2104 6
      vertex 11.9468 88.1945 6
      vertex 9.96484 88.4404 6
    endloop
  endfacet
  facet normal 0 0 1
    outer loop
      vertex 6.17521 87.5292 6
      vertex 9.96484 88.4404 6
      vertex 7.9779 88.6417 6
    endloop
  endfacet
  facet normal 0 0 1
    outer loop
      vertex 6.17521 87.5292 6
      vertex 7.9779 88.6417 6
      vertex 6.99642 88.719 6
    endloop
  endfacet
  facet normal 0 0 1
    outer loop
      vertex 9.96484 88.4404 6
      vertex 6.17521 87.5292 6
      vertex 4.68653 86.2104 6
    endloop
  endfacet
  facet normal 0 0 1
    outer loop
      vertex 15.8916 87.5697 6
      vertex 4.68653 86.2104 6
      vertex 2.92549 85.2861 6
    endloop
  endfacet
  facet normal 0 0 1
    outer loop
      vertex 21.7463 86.3024 6
      vertex 2.92549 85.2861 6
      vertex 20.05 7 6
    endloop
  endfacet
  facet normal -0 0 1
    outer loop
      vertex 0.994427 84.8102 6
      vertex 20.05 7 6
      vertex 2.92549 85.2861 6
    endloop
  endfacet
  facet normal -0 0 1
    outer loop
      vertex -0.994427 84.8102 6
      vertex 20.05 7 6
      vertex 0.994427 84.8102 6
    endloop
  endfacet
  facet normal 0 0 1
    outer loop
      vertex -20.05 7 6
      vertex -0.994427 84.8102 6
      vertex -2.92549 85.2861 6
    endloop
  endfacet
  facet normal 0 0 1
    outer loop
      vertex -15.8916 87.5697 6
      vertex -2.92549 85.2861 6
      vertex -4.68653 86.2104 6
    endloop
  endfacet
  facet normal 0 0 1
    outer loop
      vertex -9.96484 88.4404 6
      vertex -4.68653 86.2104 6
      vertex -6.17521 87.5292 6
    endloop
  endfacet
  facet normal -0 0 1
    outer loop
      vertex -7.9779 88.6417 6
      vertex -6.17521 87.5292 6
      vertex -6.99642 88.719 6
    endloop
  endfacet
  facet normal -0 0 1
    outer loop
      vertex -9.96484 88.4404 6
      vertex -6.17521 87.5292 6
      vertex -7.9779 88.6417 6
    endloop
  endfacet
  facet normal 0 0 1
    outer loop
      vertex -4.68653 86.2104 6
      vertex -9.96484 88.4404 6
      vertex -11.9468 88.1945 6
    endloop
  endfacet
  facet normal 0 0 1
    outer loop
      vertex -4.68653 86.2104 6
      vertex -11.9468 88.1945 6
      vertex -13.9227 87.9043 6
    endloop
  endfacet
  facet normal 0 0 1
    outer loop
      vertex -4.68653 86.2104 6
      vertex -13.9227 87.9043 6
      vertex -15.8916 87.5697 6
    endloop
  endfacet
  facet normal 0 0 1
    outer loop
      vertex -2.92549 85.2861 6
      vertex -15.8916 87.5697 6
      vertex -17.8525 87.1911 6
    endloop
  endfacet
  facet normal 0 0 1
    outer loop
      vertex -2.92549 85.2861 6
      vertex -17.8525 87.1911 6
      vertex -19.8044 86.7686 6
    endloop
  endfacet
  facet normal 0 0 1
    outer loop
      vertex -2.92549 85.2861 6
      vertex -19.8044 86.7686 6
      vertex -21.7463 86.3024 6
    endloop
  endfacet
  facet normal 0 0 1
    outer loop
      vertex -0.994427 84.8102 6
      vertex -20.05 7 6
      vertex 20.05 7 6
    endloop
  endfacet
  facet normal 0 0 1
    outer loop
      vertex -2.92549 85.2861 6
      vertex -21.7463 86.3024 6
      vertex -23.6773 85.7927 6
    endloop
  endfacet
  facet normal 0 0 1
    outer loop
      vertex -25.5963 85.2398 6
      vertex -2.92549 85.2861 6
      vertex -23.6773 85.7927 6
    endloop
  endfacet
  facet normal 0 0 1
    outer loop
      vertex -2.92549 85.2861 6
      vertex -25.5963 85.2398 6
      vertex -20.05 7 6
    endloop
  endfacet
  facet normal -0 0 1
    outer loop
      vertex -27.5025 84.644 6
      vertex -20.05 7 6
      vertex -25.5963 85.2398 6
    endloop
  endfacet
  facet normal -0 0 1
    outer loop
      vertex -29.3948 84.0056 6
      vertex -20.05 7 6
      vertex -27.5025 84.644 6
    endloop
  endfacet
  facet normal -0 0 1
    outer loop
      vertex -31.2724 83.3249 6
      vertex -20.05 7 6
      vertex -29.3948 84.0056 6
    endloop
  endfacet
  facet normal -0 0 1
    outer loop
      vertex -33.1341 82.6022 6
      vertex -20.05 7 6
      vertex -31.2724 83.3249 6
    endloop
  endfacet
  facet normal -0 0 1
    outer loop
      vertex -34.9792 81.838 6
      vertex -20.05 7 6
      vertex -33.1341 82.6022 6
    endloop
  endfacet
  facet normal -0 0 1
    outer loop
      vertex -36.8067 81.0325 6
      vertex -20.05 7 6
      vertex -34.9792 81.838 6
    endloop
  endfacet
  facet normal -0 0 1
    outer loop
      vertex -38.6157 80.1862 6
      vertex -20.05 7 6
      vertex -36.8067 81.0325 6
    endloop
  endfacet
  facet normal -0 0 1
    outer loop
      vertex -40.4052 79.2996 6
      vertex -20.05 7 6
      vertex -38.6157 80.1862 6
    endloop
  endfacet
  facet normal -0 0 1
    outer loop
      vertex -41.1 78.9357 6
      vertex -20.05 7 6
      vertex -40.4052 79.2996 6
    endloop
  endfacet
  facet normal 0 0 1
    outer loop
      vertex -41.1 6 6
      vertex -20.05 7 6
      vertex -41.1 78.9357 6
    endloop
  endfacet
  facet normal 0 0 1
    outer loop
      vertex -20.05 7 6
      vertex -41.1 6 6
      vertex -20.05 6 6
    endloop
  endfacet
  facet normal 0 0 1
    outer loop
      vertex 20.05 7 6
      vertex 41.1 78.9357 6
      vertex 40.4052 79.2996 6
    endloop
  endfacet
  facet normal 0 0 1
    outer loop
      vertex 20.05 7 6
      vertex 40.4052 79.2996 6
      vertex 38.6157 80.1862 6
    endloop
  endfacet
  facet normal 0 0 1
    outer loop
      vertex 20.05 7 6
      vertex 38.6157 80.1862 6
      vertex 36.8067 81.0325 6
    endloop
  endfacet
  facet normal 0 0 1
    outer loop
      vertex 20.05 7 6
      vertex 36.8067 81.0325 6
      vertex 34.9792 81.838 6
    endloop
  endfacet
  facet normal 0 0 1
    outer loop
      vertex 20.05 7 6
      vertex 34.9792 81.838 6
      vertex 33.1341 82.6022 6
    endloop
  endfacet
  facet normal 0 0 1
    outer loop
      vertex 20.05 7 6
      vertex 33.1341 82.6022 6
      vertex 31.2724 83.3249 6
    endloop
  endfacet
  facet normal 0 0 1
    outer loop
      vertex 20.05 7 6
      vertex 31.2724 83.3249 6
      vertex 29.3948 84.0056 6
    endloop
  endfacet
  facet normal 0 0 1
    outer loop
      vertex 20.05 7 6
      vertex 29.3948 84.0056 6
      vertex 27.5025 84.644 6
    endloop
  endfacet
  facet normal 0 0 1
    outer loop
      vertex 20.05 7 6
      vertex 27.5025 84.644 6
      vertex 25.5963 85.2398 6
    endloop
  endfacet
  facet normal 0 0 1
    outer loop
      vertex 20.05 7 6
      vertex 25.5963 85.2398 6
      vertex 23.6773 85.7927 6
    endloop
  endfacet
  facet normal 0 0 1
    outer loop
      vertex 20.05 7 6
      vertex 23.6773 85.7927 6
      vertex 21.7463 86.3024 6
    endloop
  endfacet
  facet normal 0 0 1
    outer loop
      vertex 41.1 78.9357 6
      vertex 20.05 7 6
      vertex 41.1 6 6
    endloop
  endfacet
  facet normal 0 0 1
    outer loop
      vertex 41.1 6 6
      vertex 20.05 7 6
      vertex 20.05 6 6
    endloop
  endfacet
  facet normal 0 0 1
    outer loop
      vertex 6.98691e-15 89 6
      vertex 1.39058 88.7202 6
      vertex 1.83938 88.9794 6
    endloop
  endfacet
  facet normal 0 0 1
    outer loop
      vertex 6.98691e-15 89 6
      vertex -0.470378 88.5247 6
      vertex 1.39058 88.7202 6
    endloop
  endfacet
  facet normal 0 -0 1
    outer loop
      vertex -0.470378 88.5247 6
      vertex 6.98691e-15 89 6
      vertex -1.86881 88.979 6
    endloop
  endfacet
  facet normal 0 1 -0
    outer loop
      vertex -20.05 6 6
      vertex -41.1 6 23.99
      vertex -20.05 6 23.99
    endloop
  endfacet
  facet normal 0 1 0
    outer loop
      vertex -41.1 6 23.99
      vertex -20.05 6 6
      vertex -41.1 6 6
    endloop
  endfacet
  facet normal 0 1 -0
    outer loop
      vertex 41.1 6 6
      vertex 20.05 6 23.99
      vertex 41.1 6 23.99
    endloop
  endfacet
  facet normal 0 1 0
    outer loop
      vertex 20.05 6 23.99
      vertex 41.1 6 6
      vertex 20.05 6 6
    endloop
  endfacet
  facet normal 0.992709 0.120537 0
    outer loop
      vertex 8.25 93 6
      vertex 8.01027 94.9743 0
      vertex 8.01027 94.9743 6
    endloop
  endfacet
  facet normal 0.992709 0.120537 0
    outer loop
      vertex 8.01027 94.9743 0
      vertex 8.25 93 6
      vertex 8.25 93 0
    endloop
  endfacet
  facet normal -0.992709 0.120537 0
    outer loop
      vertex -8.25 93 0
      vertex -8.01027 94.9743 6
      vertex -8.01027 94.9743 0
    endloop
  endfacet
  facet normal -0.992709 0.120537 0
    outer loop
      vertex -8.01027 94.9743 6
      vertex -8.25 93 0
      vertex -8.25 93 6
    endloop
  endfacet
  facet normal 0 1 -0
    outer loop
      vertex 0.994427 101.19 0
      vertex -0.994427 101.19 6
      vertex 0.994427 101.19 6
    endloop
  endfacet
  facet normal 0 1 0
    outer loop
      vertex -0.994427 101.19 6
      vertex 0.994427 101.19 0
      vertex -0.994427 101.19 0
    endloop
  endfacet
  facet normal 0.663123 0.748511 -0
    outer loop
      vertex 6.17521 98.4708 0
      vertex 4.68653 99.7896 6
      vertex 6.17521 98.4708 6
    endloop
  endfacet
  facet normal 0.663123 0.748511 0
    outer loop
      vertex 4.68653 99.7896 6
      vertex 6.17521 98.4708 0
      vertex 4.68653 99.7896 0
    endloop
  endfacet
  facet normal 0.935017 0.354604 0
    outer loop
      vertex 8.01027 94.9743 6
      vertex 7.30501 96.834 0
      vertex 7.30501 96.834 6
    endloop
  endfacet
  facet normal 0.935017 0.354604 0
    outer loop
      vertex 7.30501 96.834 0
      vertex 8.01027 94.9743 6
      vertex 8.01027 94.9743 0
    endloop
  endfacet
  facet normal -0.663123 0.748511 0
    outer loop
      vertex -4.68653 99.7896 0
      vertex -6.17521 98.4708 6
      vertex -4.68653 99.7896 6
    endloop
  endfacet
  facet normal -0.663123 0.748511 0
    outer loop
      vertex -6.17521 98.4708 6
      vertex -4.68653 99.7896 0
      vertex -6.17521 98.4708 0
    endloop
  endfacet
  facet normal -0.822984 0.568065 0
    outer loop
      vertex -7.30501 96.834 0
      vertex -6.17521 98.4708 6
      vertex -6.17521 98.4708 0
    endloop
  endfacet
  facet normal -0.822984 0.568065 0
    outer loop
      vertex -6.17521 98.4708 6
      vertex -7.30501 96.834 0
      vertex -7.30501 96.834 6
    endloop
  endfacet
  facet normal -0.464721 0.885457 0
    outer loop
      vertex -2.92549 100.714 0
      vertex -4.68653 99.7896 6
      vertex -2.92549 100.714 6
    endloop
  endfacet
  facet normal -0.464721 0.885457 0
    outer loop
      vertex -4.68653 99.7896 6
      vertex -2.92549 100.714 0
      vertex -4.68653 99.7896 0
    endloop
  endfacet
  facet normal 0.822984 0.568065 0
    outer loop
      vertex 7.30501 96.834 6
      vertex 6.17521 98.4708 0
      vertex 6.17521 98.4708 6
    endloop
  endfacet
  facet normal 0.822984 0.568065 0
    outer loop
      vertex 6.17521 98.4708 0
      vertex 7.30501 96.834 6
      vertex 7.30501 96.834 0
    endloop
  endfacet
  facet normal 0.239317 0.970941 -0
    outer loop
      vertex 2.92549 100.714 0
      vertex 0.994427 101.19 6
      vertex 2.92549 100.714 6
    endloop
  endfacet
  facet normal 0.239317 0.970941 0
    outer loop
      vertex 0.994427 101.19 6
      vertex 2.92549 100.714 0
      vertex 0.994427 101.19 0
    endloop
  endfacet
  facet normal 0.464721 0.885457 -0
    outer loop
      vertex 4.68653 99.7896 0
      vertex 2.92549 100.714 6
      vertex 4.68653 99.7896 6
    endloop
  endfacet
  facet normal 0.464721 0.885457 0
    outer loop
      vertex 2.92549 100.714 6
      vertex 4.68653 99.7896 0
      vertex 2.92549 100.714 0
    endloop
  endfacet
  facet normal -0.935017 0.354604 0
    outer loop
      vertex -8.01027 94.9743 0
      vertex -7.30501 96.834 6
      vertex -7.30501 96.834 0
    endloop
  endfacet
  facet normal -0.935017 0.354604 0
    outer loop
      vertex -7.30501 96.834 6
      vertex -8.01027 94.9743 0
      vertex -8.01027 94.9743 6
    endloop
  endfacet
  facet normal -0.239317 0.970941 0
    outer loop
      vertex -0.994427 101.19 0
      vertex -2.92549 100.714 6
      vertex -0.994427 101.19 6
    endloop
  endfacet
  facet normal -0.239317 0.970941 0
    outer loop
      vertex -2.92549 100.714 6
      vertex -0.994427 101.19 0
      vertex -2.92549 100.714 0
    endloop
  endfacet
  facet normal 0.992709 -0.120537 0
    outer loop
      vertex 8.01027 91.0257 6
      vertex 8.25 93 0
      vertex 8.25 93 6
    endloop
  endfacet
  facet normal 0.992709 -0.120537 0
    outer loop
      vertex 8.25 93 0
      vertex 8.01027 91.0257 6
      vertex 8.01027 91.0257 0
    endloop
  endfacet
  facet normal 0.935017 -0.354604 0
    outer loop
      vertex 7.30501 89.166 6
      vertex 8.01027 91.0257 0
      vertex 8.01027 91.0257 6
    endloop
  endfacet
  facet normal 0.935017 -0.354604 0
    outer loop
      vertex 8.01027 91.0257 0
      vertex 7.30501 89.166 6
      vertex 7.30501 89.166 0
    endloop
  endfacet
  facet normal -0.822982 -0.568068 0
    outer loop
      vertex -6.99642 88.719 0
      vertex -7.30501 89.166 6
      vertex -7.30501 89.166 0
    endloop
  endfacet
  facet normal -0.822982 -0.568068 0
    outer loop
      vertex -7.30501 89.166 6
      vertex -6.99642 88.719 0
      vertex -6.99642 88.719 6
    endloop
  endfacet
  facet normal -0.992709 -0.120537 0
    outer loop
      vertex -8.01027 91.0257 0
      vertex -8.25 93 6
      vertex -8.25 93 0
    endloop
  endfacet
  facet normal -0.992709 -0.120537 0
    outer loop
      vertex -8.25 93 6
      vertex -8.01027 91.0257 0
      vertex -8.01027 91.0257 6
    endloop
  endfacet
  facet normal -0.935017 -0.354604 0
    outer loop
      vertex -7.30501 89.166 0
      vertex -8.01027 91.0257 6
      vertex -8.01027 91.0257 0
    endloop
  endfacet
  facet normal -0.935017 -0.354604 0
    outer loop
      vertex -8.01027 91.0257 6
      vertex -7.30501 89.166 0
      vertex -7.30501 89.166 6
    endloop
  endfacet
  facet normal 0.822982 -0.568068 0
    outer loop
      vertex 6.99642 88.719 6
      vertex 7.30501 89.166 0
      vertex 7.30501 89.166 6
    endloop
  endfacet
  facet normal 0.822982 -0.568068 0
    outer loop
      vertex 7.30501 89.166 0
      vertex 6.99642 88.719 6
      vertex 6.99642 88.719 0
    endloop
  endfacet
  facet normal -0.923879 -0.382684 0
    outer loop
      vertex 2.25 93 0
      vertex 1.59099 94.591 3.5
      vertex 1.59099 94.591 0
    endloop
  endfacet
  facet normal -0.923879 -0.382684 0
    outer loop
      vertex 1.59099 94.591 3.5
      vertex 2.25 93 0
      vertex 2.25 93 3.5
    endloop
  endfacet
  facet normal 0.923879 -0.382684 0
    outer loop
      vertex -2.25 93 3.5
      vertex -1.59099 94.591 0
      vertex -1.59099 94.591 3.5
    endloop
  endfacet
  facet normal 0.923879 -0.382684 0
    outer loop
      vertex -1.59099 94.591 0
      vertex -2.25 93 3.5
      vertex -2.25 93 0
    endloop
  endfacet
  facet normal -0.382685 -0.923879 0
    outer loop
      vertex 0 95.25 0
      vertex 1.59099 94.591 3.5
      vertex 0 95.25 3.5
    endloop
  endfacet
  facet normal -0.382685 -0.923879 -0
    outer loop
      vertex 1.59099 94.591 3.5
      vertex 0 95.25 0
      vertex 1.59099 94.591 0
    endloop
  endfacet
  facet normal 0.382685 -0.923879 0
    outer loop
      vertex -1.59099 94.591 0
      vertex 0 95.25 3.5
      vertex -1.59099 94.591 3.5
    endloop
  endfacet
  facet normal 0.382685 -0.923879 0
    outer loop
      vertex 0 95.25 3.5
      vertex -1.59099 94.591 0
      vertex 0 95.25 0
    endloop
  endfacet
  facet normal -0.382685 0.923879 0
    outer loop
      vertex 1.59099 91.409 0
      vertex 0 90.75 3.5
      vertex 1.59099 91.409 3.5
    endloop
  endfacet
  facet normal -0.382685 0.923879 0
    outer loop
      vertex 0 90.75 3.5
      vertex 1.59099 91.409 0
      vertex 0 90.75 0
    endloop
  endfacet
  facet normal 0.923879 0.382684 0
    outer loop
      vertex -1.59099 91.409 3.5
      vertex -2.25 93 0
      vertex -2.25 93 3.5
    endloop
  endfacet
  facet normal 0.923879 0.382684 0
    outer loop
      vertex -2.25 93 0
      vertex -1.59099 91.409 3.5
      vertex -1.59099 91.409 0
    endloop
  endfacet
  facet normal -0.923879 0.382684 0
    outer loop
      vertex 1.59099 91.409 0
      vertex 2.25 93 3.5
      vertex 2.25 93 0
    endloop
  endfacet
  facet normal -0.923879 0.382684 0
    outer loop
      vertex 2.25 93 3.5
      vertex 1.59099 91.409 0
      vertex 1.59099 91.409 3.5
    endloop
  endfacet
  facet normal 0.382685 0.923879 -0
    outer loop
      vertex 0 90.75 0
      vertex -1.59099 91.409 3.5
      vertex 0 90.75 3.5
    endloop
  endfacet
  facet normal 0.382685 0.923879 0
    outer loop
      vertex -1.59099 91.409 3.5
      vertex 0 90.75 0
      vertex -1.59099 91.409 0
    endloop
  endfacet
  facet normal -0.978148 -0.207912 0
    outer loop
      vertex 4.5 93 3.5
      vertex 4.11095 94.8303 6
      vertex 4.11095 94.8303 3.5
    endloop
  endfacet
  facet normal -0.978148 -0.207912 0
    outer loop
      vertex 4.11095 94.8303 6
      vertex 4.5 93 3.5
      vertex 4.5 93 6
    endloop
  endfacet
  facet normal 1 -0 0
    outer loop
      vertex -4.40166 92.0644 6
      vertex -4.40166 93.9356 3.5
      vertex -4.40166 93.9356 6
    endloop
  endfacet
  facet normal 1 0 0
    outer loop
      vertex -4.40166 93.9356 3.5
      vertex -4.40166 92.0644 6
      vertex -4.40166 92.0644 3.5
    endloop
  endfacet
  facet normal -0.104529 -0.994522 0
    outer loop
      vertex -0.470378 97.4753 3.5
      vertex 1.39058 97.2798 6
      vertex -0.470378 97.4753 6
    endloop
  endfacet
  facet normal -0.104529 -0.994522 -0
    outer loop
      vertex 1.39058 97.2798 6
      vertex -0.470378 97.4753 3.5
      vertex 1.39058 97.2798 3.5
    endloop
  endfacet
  facet normal -0.809018 -0.587785 0
    outer loop
      vertex 4.11095 94.8303 3.5
      vertex 3.01109 96.3442 6
      vertex 3.01109 96.3442 3.5
    endloop
  endfacet
  facet normal -0.809018 -0.587785 0
    outer loop
      vertex 3.01109 96.3442 6
      vertex 4.11095 94.8303 3.5
      vertex 4.11095 94.8303 6
    endloop
  endfacet
  facet normal -0.499997 0.866027 0
    outer loop
      vertex 3.01109 89.6558 3.5
      vertex 1.83938 88.9794 6
      vertex 3.01109 89.6558 6
    endloop
  endfacet
  facet normal -0.499997 0.866027 0
    outer loop
      vertex 1.83938 88.9794 6
      vertex 3.01109 89.6558 3.5
      vertex 1.83938 88.9794 3.5
    endloop
  endfacet
  facet normal -0.499999 -0.866026 0
    outer loop
      vertex 1.39058 97.2798 3.5
      vertex 3.01109 96.3442 6
      vertex 1.39058 97.2798 6
    endloop
  endfacet
  facet normal -0.499999 -0.866026 -0
    outer loop
      vertex 3.01109 96.3442 6
      vertex 1.39058 97.2798 3.5
      vertex 3.01109 96.3442 3.5
    endloop
  endfacet
  facet normal 0.669129 -0.743146 0
    outer loop
      vertex -3.64058 95.645 3.5
      vertex -2.25 96.8971 6
      vertex -3.64058 95.645 6
    endloop
  endfacet
  facet normal 0.669129 -0.743146 0
    outer loop
      vertex -2.25 96.8971 6
      vertex -3.64058 95.645 3.5
      vertex -2.25 96.8971 3.5
    endloop
  endfacet
  facet normal 0.913546 -0.406736 0
    outer loop
      vertex -4.40166 93.9356 6
      vertex -3.64058 95.645 3.5
      vertex -3.64058 95.645 6
    endloop
  endfacet
  facet normal 0.913546 -0.406736 0
    outer loop
      vertex -3.64058 95.645 3.5
      vertex -4.40166 93.9356 6
      vertex -4.40166 93.9356 3.5
    endloop
  endfacet
  facet normal 0.30902 -0.951056 0
    outer loop
      vertex -2.25 96.8971 3.5
      vertex -0.470378 97.4753 6
      vertex -2.25 96.8971 6
    endloop
  endfacet
  facet normal 0.30902 -0.951056 0
    outer loop
      vertex -0.470378 97.4753 6
      vertex -2.25 96.8971 3.5
      vertex -0.470378 97.4753 3.5
    endloop
  endfacet
  facet normal -0.978148 0.207912 0
    outer loop
      vertex 4.11095 91.1697 3.5
      vertex 4.5 93 6
      vertex 4.5 93 3.5
    endloop
  endfacet
  facet normal -0.978148 0.207912 0
    outer loop
      vertex 4.5 93 6
      vertex 4.11095 91.1697 3.5
      vertex 4.11095 91.1697 6
    endloop
  endfacet
  facet normal 0 0 1
    outer loop
      vertex 2.25 93 3.5
      vertex 4.5 93 3.5
      vertex 4.11095 94.8303 3.5
    endloop
  endfacet
  facet normal 0 0 1
    outer loop
      vertex 1.59099 94.591 3.5
      vertex 4.11095 94.8303 3.5
      vertex 3.01109 96.3442 3.5
    endloop
  endfacet
  facet normal 0 0 1
    outer loop
      vertex 4.5 93 3.5
      vertex 2.25 93 3.5
      vertex 4.11095 91.1697 3.5
    endloop
  endfacet
  facet normal -0 0 1
    outer loop
      vertex 1.59099 91.409 3.5
      vertex 4.11095 91.1697 3.5
      vertex 2.25 93 3.5
    endloop
  endfacet
  facet normal 0 0 1
    outer loop
      vertex 4.11095 94.8303 3.5
      vertex 1.59099 94.591 3.5
      vertex 2.25 93 3.5
    endloop
  endfacet
  facet normal 0 0 1
    outer loop
      vertex 1.39058 97.2798 3.5
      vertex 1.59099 94.591 3.5
      vertex 3.01109 96.3442 3.5
    endloop
  endfacet
  facet normal 0 0 1
    outer loop
      vertex 1.39058 97.2798 3.5
      vertex 0 95.25 3.5
      vertex 1.59099 94.591 3.5
    endloop
  endfacet
  facet normal 0 0 1
    outer loop
      vertex -0.470378 97.4753 3.5
      vertex 0 95.25 3.5
      vertex 1.39058 97.2798 3.5
    endloop
  endfacet
  facet normal -0 0 1
    outer loop
      vertex -2.25 96.8971 3.5
      vertex 0 95.25 3.5
      vertex -0.470378 97.4753 3.5
    endloop
  endfacet
  facet normal 0 0 1
    outer loop
      vertex 0 95.25 3.5
      vertex -2.25 96.8971 3.5
      vertex -1.59099 94.591 3.5
    endloop
  endfacet
  facet normal -0 0 1
    outer loop
      vertex -3.64058 95.645 3.5
      vertex -1.59099 94.591 3.5
      vertex -2.25 96.8971 3.5
    endloop
  endfacet
  facet normal 0 0 1
    outer loop
      vertex -4.40166 93.9356 3.5
      vertex -1.59099 94.591 3.5
      vertex -3.64058 95.645 3.5
    endloop
  endfacet
  facet normal 0 0 1
    outer loop
      vertex -1.59099 94.591 3.5
      vertex -4.40166 93.9356 3.5
      vertex -2.25 93 3.5
    endloop
  endfacet
  facet normal 0 0 1
    outer loop
      vertex -2.25 93 3.5
      vertex -3.64058 90.355 3.5
      vertex -2.25 89.1029 3.5
    endloop
  endfacet
  facet normal 0 0 1
    outer loop
      vertex -4.40166 92.0644 3.5
      vertex -2.25 93 3.5
      vertex -4.40166 93.9356 3.5
    endloop
  endfacet
  facet normal 0 0 1
    outer loop
      vertex -2.25 93 3.5
      vertex -4.40166 92.0644 3.5
      vertex -3.64058 90.355 3.5
    endloop
  endfacet
  facet normal 0 0 1
    outer loop
      vertex 4.11095 91.1697 3.5
      vertex 1.59099 91.409 3.5
      vertex 3.01109 89.6558 3.5
    endloop
  endfacet
  facet normal 0 0 1
    outer loop
      vertex 3.01109 89.6558 3.5
      vertex 1.59099 91.409 3.5
      vertex 1.83938 88.9794 3.5
    endloop
  endfacet
  facet normal -0 0 1
    outer loop
      vertex 0 90.75 3.5
      vertex 1.83938 88.9794 3.5
      vertex 1.59099 91.409 3.5
    endloop
  endfacet
  facet normal 0 0 1
    outer loop
      vertex 1.83938 88.9794 3.5
      vertex 0 90.75 3.5
      vertex 6.98691e-15 89 3.5
    endloop
  endfacet
  facet normal 0 0 1
    outer loop
      vertex -1.86881 88.979 3.5
      vertex 0 90.75 3.5
      vertex -1.59099 91.409 3.5
    endloop
  endfacet
  facet normal 0 0 1
    outer loop
      vertex 0 90.75 3.5
      vertex -1.86881 88.979 3.5
      vertex 6.98691e-15 89 3.5
    endloop
  endfacet
  facet normal 0 0 1
    outer loop
      vertex -2.25 89.1029 3.5
      vertex -1.59099 91.409 3.5
      vertex -2.25 93 3.5
    endloop
  endfacet
  facet normal 0 0 1
    outer loop
      vertex -1.59099 91.409 3.5
      vertex -2.25 89.1029 3.5
      vertex -1.86881 88.979 3.5
    endloop
  endfacet
  facet normal 0.309034 0.951051 -0
    outer loop
      vertex -1.86881 88.979 3.5
      vertex -2.25 89.1029 6
      vertex -1.86881 88.979 6
    endloop
  endfacet
  facet normal 0.309034 0.951051 0
    outer loop
      vertex -2.25 89.1029 6
      vertex -1.86881 88.979 3.5
      vertex -2.25 89.1029 3.5
    endloop
  endfacet
  facet normal -0.809018 0.587785 0
    outer loop
      vertex 3.01109 89.6558 3.5
      vertex 4.11095 91.1697 6
      vertex 4.11095 91.1697 3.5
    endloop
  endfacet
  facet normal -0.809018 0.587785 0
    outer loop
      vertex 4.11095 91.1697 6
      vertex 3.01109 89.6558 3.5
      vertex 3.01109 89.6558 6
    endloop
  endfacet
  facet normal 0.669129 0.743146 -0
    outer loop
      vertex -2.25 89.1029 3.5
      vertex -3.64058 90.355 6
      vertex -2.25 89.1029 6
    endloop
  endfacet
  facet normal 0.669129 0.743146 0
    outer loop
      vertex -3.64058 90.355 6
      vertex -2.25 89.1029 3.5
      vertex -3.64058 90.355 3.5
    endloop
  endfacet
  facet normal 0.913546 0.406736 0
    outer loop
      vertex -3.64058 90.355 6
      vertex -4.40166 92.0644 3.5
      vertex -4.40166 92.0644 6
    endloop
  endfacet
  facet normal 0.913546 0.406736 0
    outer loop
      vertex -4.40166 92.0644 3.5
      vertex -3.64058 90.355 6
      vertex -3.64058 90.355 3.5
    endloop
  endfacet
  facet normal 1 -0 0
    outer loop
      vertex -44.1 3 30
      vertex -44.1 58 23.99
      vertex -44.1 58 30
    endloop
  endfacet
  facet normal 1 0 0
    outer loop
      vertex -44.1 58 23.99
      vertex -44.1 3 30
      vertex -44.1 3 23.99
    endloop
  endfacet
  facet normal -1 0 0
    outer loop
      vertex 44.1 3 23.99
      vertex 44.1 58 30
      vertex 44.1 58 23.99
    endloop
  endfacet
  facet normal -1 -0 0
    outer loop
      vertex 44.1 58 30
      vertex 44.1 3 23.99
      vertex 44.1 3 30
    endloop
  endfacet
  facet normal 0 0 1
    outer loop
      vertex -47.1 68.3355 23.99
      vertex -41.1 78.9357 23.99
      vertex -42.1743 78.373 23.99
    endloop
  endfacet
  facet normal -0 0 1
    outer loop
      vertex -41.1 6 23.99
      vertex -20.05 3 23.99
      vertex -20.05 6 23.99
    endloop
  endfacet
  facet normal 0 0 1
    outer loop
      vertex -47.1 68.3355 23.99
      vertex -42.1743 78.373 23.99
      vertex -43.9222 77.407 23.99
    endloop
  endfacet
  facet normal 0 0 1
    outer loop
      vertex -41.1 78.9357 23.99
      vertex -44.1 58 23.99
      vertex -41.1 6 23.99
    endloop
  endfacet
  facet normal 0 0 1
    outer loop
      vertex -41.1 6 23.99
      vertex -44.1 3 23.99
      vertex -20.05 3 23.99
    endloop
  endfacet
  facet normal 0 0 1
    outer loop
      vertex -44.1 3 23.99
      vertex -41.1 6 23.99
      vertex -44.1 58 23.99
    endloop
  endfacet
  facet normal -0 0 1
    outer loop
      vertex -47.3509 75.3585 23.99
      vertex -47.1 68.3355 23.99
      vertex -45.648 76.4019 23.99
    endloop
  endfacet
  facet normal -0 0 1
    outer loop
      vertex -49.0298 74.277 23.99
      vertex -47.1 68.3355 23.99
      vertex -47.3509 75.3585 23.99
    endloop
  endfacet
  facet normal -0 0 1
    outer loop
      vertex -50.6841 73.1582 23.99
      vertex -47.1 68.3355 23.99
      vertex -49.0298 74.277 23.99
    endloop
  endfacet
  facet normal 0 0 1
    outer loop
      vertex -47.1 68.3355 23.99
      vertex -50.6841 73.1582 23.99
      vertex -47.6068 67.9896 23.99
    endloop
  endfacet
  facet normal -0 0 1
    outer loop
      vertex -52.3129 72.0025 23.99
      vertex -47.6068 67.9896 23.99
      vertex -50.6841 73.1582 23.99
    endloop
  endfacet
  facet normal 0 0 1
    outer loop
      vertex -47.6068 67.9896 23.99
      vertex -52.3129 72.0025 23.99
      vertex -49.2296 66.824 23.99
    endloop
  endfacet
  facet normal -0 0 1
    outer loop
      vertex -53.9153 70.8106 23.99
      vertex -49.2296 66.824 23.99
      vertex -52.3129 72.0025 23.99
    endloop
  endfacet
  facet normal 0 0 1
    outer loop
      vertex -49.2296 66.824 23.99
      vertex -53.9153 70.8106 23.99
      vertex -50.8239 65.6196 23.99
    endloop
  endfacet
  facet normal -0 0 1
    outer loop
      vertex -55 69.9653 23.99
      vertex -50.8239 65.6196 23.99
      vertex -53.9153 70.8106 23.99
    endloop
  endfacet
  facet normal 0 0 1
    outer loop
      vertex -50.8239 65.6196 23.99
      vertex -55 69.9653 23.99
      vertex -52.3887 64.3772 23.99
    endloop
  endfacet
  facet normal 0 0 1
    outer loop
      vertex -52.3887 64.3772 23.99
      vertex -55 69.9653 23.99
      vertex -53.9232 63.0975 23.99
    endloop
  endfacet
  facet normal 0 0 1
    outer loop
      vertex -53.9232 63.0975 23.99
      vertex -55 69.9653 23.99
      vertex -55 62.1546 23.99
    endloop
  endfacet
  facet normal 0 0 1
    outer loop
      vertex -47.1 68.3355 23.99
      vertex -43.9222 77.407 23.99
      vertex -45.648 76.4019 23.99
    endloop
  endfacet
  facet normal 0 0 1
    outer loop
      vertex -41.1 78.9357 23.99
      vertex -47.1 68.3355 23.99
      vertex -44.1 58 23.99
    endloop
  endfacet
  facet normal 0 0 1
    outer loop
      vertex -44.1 58 23.99
      vertex -47.1 68.3355 23.99
      vertex -47.1 58 23.99
    endloop
  endfacet
  facet normal 0 0 1
    outer loop
      vertex 55 69.9653 23.99
      vertex 54.3019 62.7718 23.99
      vertex 55 62.1531 23.99
    endloop
  endfacet
  facet normal 0 0 1
    outer loop
      vertex 51.2179 65.3125 23.99
      vertex 55 69.9653 23.99
      vertex 53.9153 70.8106 23.99
    endloop
  endfacet
  facet normal 0 0 1
    outer loop
      vertex 55 69.9653 23.99
      vertex 52.7752 64.0607 23.99
      vertex 54.3019 62.7718 23.99
    endloop
  endfacet
  facet normal 0 0 1
    outer loop
      vertex 49.6309 66.5265 23.99
      vertex 53.9153 70.8106 23.99
      vertex 52.3129 72.0025 23.99
    endloop
  endfacet
  facet normal 0 0 1
    outer loop
      vertex 55 69.9653 23.99
      vertex 51.2179 65.3125 23.99
      vertex 52.7752 64.0607 23.99
    endloop
  endfacet
  facet normal 0 0 1
    outer loop
      vertex 48.0152 67.7019 23.99
      vertex 52.3129 72.0025 23.99
      vertex 50.6841 73.1582 23.99
    endloop
  endfacet
  facet normal 0 0 1
    outer loop
      vertex 53.9153 70.8106 23.99
      vertex 49.6309 66.5265 23.99
      vertex 51.2179 65.3125 23.99
    endloop
  endfacet
  facet normal 0 0 1
    outer loop
      vertex 47.1 68.3345 23.99
      vertex 50.6841 73.1582 23.99
      vertex 49.0298 74.277 23.99
    endloop
  endfacet
  facet normal 0 0 1
    outer loop
      vertex 52.3129 72.0025 23.99
      vertex 48.0152 67.7019 23.99
      vertex 49.6309 66.5265 23.99
    endloop
  endfacet
  facet normal 0 0 1
    outer loop
      vertex 47.1 68.3345 23.99
      vertex 49.0298 74.277 23.99
      vertex 47.3509 75.3585 23.99
    endloop
  endfacet
  facet normal 0 0 1
    outer loop
      vertex 50.6841 73.1582 23.99
      vertex 47.1 68.3345 23.99
      vertex 48.0152 67.7019 23.99
    endloop
  endfacet
  facet normal 0 0 1
    outer loop
      vertex 45.648 76.4019 23.99
      vertex 47.1 68.3345 23.99
      vertex 47.3509 75.3585 23.99
    endloop
  endfacet
  facet normal 0 0 1
    outer loop
      vertex 43.9222 77.407 23.99
      vertex 47.1 68.3345 23.99
      vertex 45.648 76.4019 23.99
    endloop
  endfacet
  facet normal 0 0 1
    outer loop
      vertex 47.1 68.3345 23.99
      vertex 44.1 58 23.99
      vertex 47.1 58 23.99
    endloop
  endfacet
  facet normal 0 0 1
    outer loop
      vertex 42.1743 78.373 23.99
      vertex 47.1 68.3345 23.99
      vertex 43.9222 77.407 23.99
    endloop
  endfacet
  facet normal 0 0 1
    outer loop
      vertex 41.1 78.9357 23.99
      vertex 47.1 68.3345 23.99
      vertex 42.1743 78.373 23.99
    endloop
  endfacet
  facet normal 0 0 1
    outer loop
      vertex 47.1 68.3345 23.99
      vertex 41.1 78.9357 23.99
      vertex 44.1 58 23.99
    endloop
  endfacet
  facet normal 0 0 1
    outer loop
      vertex 44.1 58 23.99
      vertex 41.1 78.9357 23.99
      vertex 41.1 6 23.99
    endloop
  endfacet
  facet normal 0 0 1
    outer loop
      vertex 44.1 58 23.99
      vertex 41.1 6 23.99
      vertex 44.1 3 23.99
    endloop
  endfacet
  facet normal 0 0 1
    outer loop
      vertex 20.05 3 23.99
      vertex 41.1 6 23.99
      vertex 20.05 6 23.99
    endloop
  endfacet
  facet normal 0 0 1
    outer loop
      vertex 41.1 6 23.99
      vertex 20.05 3 23.99
      vertex 44.1 3 23.99
    endloop
  endfacet
  facet normal 0 1 -0
    outer loop
      vertex -20.05 3 23.99
      vertex -44.1 3 30
      vertex -20.05 3 30
    endloop
  endfacet
  facet normal 0 1 0
    outer loop
      vertex -44.1 3 30
      vertex -20.05 3 23.99
      vertex -44.1 3 23.99
    endloop
  endfacet
  facet normal 0 1 -0
    outer loop
      vertex 44.1 3 23.99
      vertex 20.05 3 30
      vertex 44.1 3 30
    endloop
  endfacet
  facet normal 0 1 0
    outer loop
      vertex 20.05 3 30
      vertex 44.1 3 23.99
      vertex 20.05 3 23.99
    endloop
  endfacet
  facet normal 0 1 -0
    outer loop
      vertex -44.1 58 23.99
      vertex -47.1 58 30
      vertex -44.1 58 30
    endloop
  endfacet
  facet normal 0 1 0
    outer loop
      vertex -47.1 58 30
      vertex -44.1 58 23.99
      vertex -47.1 58 23.99
    endloop
  endfacet
  facet normal 0 1 -0
    outer loop
      vertex 47.1 58 23.99
      vertex 44.1 58 30
      vertex 47.1 58 30
    endloop
  endfacet
  facet normal 0 1 0
    outer loop
      vertex 44.1 58 30
      vertex 47.1 58 23.99
      vertex 44.1 58 23.99
    endloop
  endfacet
  facet normal -1 0 0
    outer loop
      vertex -55 62.1546 0
      vertex -55 69.9653 23.99
      vertex -55 69.9653 0
    endloop
  endfacet
  facet normal -1 -0 0
    outer loop
      vertex -55 69.9653 23.99
      vertex -55 62.1546 0
      vertex -55 62.1546 23.99
    endloop
  endfacet
  facet normal 1 -0 0
    outer loop
      vertex 55 62.1531 23.99
      vertex 55 69.9653 0
      vertex 55 69.9653 23.99
    endloop
  endfacet
  facet normal 1 0 0
    outer loop
      vertex 55 69.9653 0
      vertex 55 62.1531 23.99
      vertex 55 62.1531 0
    endloop
  endfacet
endsolid OpenSCAD_Model
