solid OpenSCAD_Model
  facet normal -1 0 0
    outer loop
      vertex 0 0 0
      vertex 0 60 6
      vertex 0 60 0
    endloop
  endfacet
  facet normal -1 -0 0
    outer loop
      vertex 0 60 6
      vertex 0 0 0
      vertex 0 0 6
    endloop
  endfacet
  facet normal 0 0 1
    outer loop
      vertex 43 60 6
      vertex 26.5 22.3 6
      vertex 43 0 6
    endloop
  endfacet
  facet normal 0 0 1
    outer loop
      vertex 43 60 6
      vertex 16.5 22.3 6
      vertex 26.5 22.3 6
    endloop
  endfacet
  facet normal 0 0 1
    outer loop
      vertex 0 0 6
      vertex 16.5 22.3 6
      vertex 0 60 6
    endloop
  endfacet
  facet normal -0 0 1
    outer loop
      vertex 0 60 6
      vertex 16.5 22.3 6
      vertex 43 60 6
    endloop
  endfacet
  facet normal -0 0 1
    outer loop
      vertex 26.5 12.3 6
      vertex 43 0 6
      vertex 26.5 22.3 6
    endloop
  endfacet
  facet normal -0 0 1
    outer loop
      vertex 16.5 12.3 6
      vertex 43 0 6
      vertex 26.5 12.3 6
    endloop
  endfacet
  facet normal 0 0 1
    outer loop
      vertex 16.5 12.3 6
      vertex 0 0 6
      vertex 43 0 6
    endloop
  endfacet
  facet normal 0 0 1
    outer loop
      vertex 16.5 22.3 6
      vertex 0 0 6
      vertex 16.5 12.3 6
    endloop
  endfacet
  facet normal 1 -0 0
    outer loop
      vertex 43 0 6
      vertex 43 60 0
      vertex 43 60 6
    endloop
  endfacet
  facet normal 1 0 0
    outer loop
      vertex 43 60 0
      vertex 43 0 6
      vertex 43 0 0
    endloop
  endfacet
  facet normal 0 1 -0
    outer loop
      vertex 43 60 0
      vertex 0 60 6
      vertex 43 60 6
    endloop
  endfacet
  facet normal 0 1 0
    outer loop
      vertex 0 60 6
      vertex 43 60 0
      vertex 0 60 0
    endloop
  endfacet
  facet normal 0 0 -1
    outer loop
      vertex 26.5 22.3 0
      vertex 43 0 0
      vertex 26.5 12.3 0
    endloop
  endfacet
  facet normal 0 0 -1
    outer loop
      vertex 43 0 0
      vertex 16.5 12.3 0
      vertex 26.5 12.3 0
    endloop
  endfacet
  facet normal -0 0 -1
    outer loop
      vertex 16.5 12.3 0
      vertex 0 0 0
      vertex 16.5 22.3 0
    endloop
  endfacet
  facet normal 0 0 -1
    outer loop
      vertex 0 0 0
      vertex 16.5 12.3 0
      vertex 43 0 0
    endloop
  endfacet
  facet normal 0 0 -1
    outer loop
      vertex 43 0 0
      vertex 26.5 22.3 0
      vertex 43 60 0
    endloop
  endfacet
  facet normal 0 0 -1
    outer loop
      vertex 16.5 22.3 0
      vertex 43 60 0
      vertex 26.5 22.3 0
    endloop
  endfacet
  facet normal 0 0 -1
    outer loop
      vertex 0 60 0
      vertex 16.5 22.3 0
      vertex 0 0 0
    endloop
  endfacet
  facet normal 0 0 -1
    outer loop
      vertex 16.5 22.3 0
      vertex 0 60 0
      vertex 43 60 0
    endloop
  endfacet
  facet normal 0 -1 0
    outer loop
      vertex 0 0 0
      vertex 43 0 6
      vertex 0 0 6
    endloop
  endfacet
  facet normal 0 -1 -0
    outer loop
      vertex 43 0 6
      vertex 0 0 0
      vertex 43 0 0
    endloop
  endfacet
  facet normal 1 -0 0
    outer loop
      vertex 16.5 12.3 6
      vertex 16.5 22.3 0
      vertex 16.5 22.3 6
    endloop
  endfacet
  facet normal 1 0 0
    outer loop
      vertex 16.5 22.3 0
      vertex 16.5 12.3 6
      vertex 16.5 12.3 0
    endloop
  endfacet
  facet normal -1 0 0
    outer loop
      vertex 26.5 12.3 0
      vertex 26.5 22.3 6
      vertex 26.5 22.3 0
    endloop
  endfacet
  facet normal -1 -0 0
    outer loop
      vertex 26.5 22.3 6
      vertex 26.5 12.3 0
      vertex 26.5 12.3 6
    endloop
  endfacet
  facet normal 0 1 -0
    outer loop
      vertex 26.5 12.3 0
      vertex 16.5 12.3 6
      vertex 26.5 12.3 6
    endloop
  endfacet
  facet normal 0 1 0
    outer loop
      vertex 16.5 12.3 6
      vertex 26.5 12.3 0
      vertex 16.5 12.3 0
    endloop
  endfacet
  facet normal 0 -1 0
    outer loop
      vertex 16.5 22.3 0
      vertex 26.5 22.3 6
      vertex 16.5 22.3 6
    endloop
  endfacet
  facet normal 0 -1 -0
    outer loop
      vertex 26.5 22.3 6
      vertex 16.5 22.3 0
      vertex 26.5 22.3 0
    endloop
  endfacet
endsolid OpenSCAD_Model
